<?xml version="1.0" encoding="UTF-8" standalone="no"?>
<!-- Generator: Adobe Illustrator 19.1.0, SVG Export Plug-In . SVG Version: 6.00 Build 0)  -->

<svg
   xmlns:dc="http://purl.org/dc/elements/1.1/"
   xmlns:cc="http://creativecommons.org/ns#"
   xmlns:rdf="http://www.w3.org/1999/02/22-rdf-syntax-ns#"
   xmlns:svg="http://www.w3.org/2000/svg"
   xmlns="http://www.w3.org/2000/svg"
   xmlns:sodipodi="http://sodipodi.sourceforge.net/DTD/sodipodi-0.dtd"
   xmlns:inkscape="http://www.inkscape.org/namespaces/inkscape"
   version="1.1"
   x="0px"
   y="0px"
   viewBox="0 0 526.62804 198.79515"
   xml:space="preserve"
   id="svg2"
   inkscape:version="0.91 r13725"
   sodipodi:docname="logo_serj_1.svg"
   width="526.62805"
   height="198.79515"><metadata
   id="metadata419"><rdf:RDF><cc:Work
       rdf:about=""><dc:format>image/svg+xml</dc:format><dc:type
         rdf:resource="http://purl.org/dc/dcmitype/StillImage" /><dc:title></dc:title></cc:Work></rdf:RDF></metadata><defs
   id="defs417" /><sodipodi:namedview
   pagecolor="#ffffff"
   bordercolor="#666666"
   borderopacity="1"
   objecttolerance="10"
   gridtolerance="10"
   guidetolerance="10"
   inkscape:pageopacity="0"
   inkscape:pageshadow="2"
   inkscape:window-width="1280"
   inkscape:window-height="972"
   id="namedview415"
   showgrid="false"
   inkscape:zoom="0.39643878"
   inkscape:cx="376.14026"
   inkscape:cy="-64.907107"
   inkscape:window-x="-8"
   inkscape:window-y="-8"
   inkscape:window-maximized="1"
   inkscape:current-layer="svg2"
   fit-margin-top="0"
   fit-margin-left="0"
   fit-margin-right="0"
   fit-margin-bottom="0" />
<style
   type="text/css"
   id="style4">
	.st0{fill:none;}
	.st1{fill:#E30613;}
	.st2{fill:url(#SVGID_1_);}
	.st3{fill:none;stroke:#000000;stroke-miterlimit:10;}
	.st4{fill:#312783;}
	.st5{fill:#FFED00;}
	.st6{fill:#3AAA35;}
	.st7{fill:#D61016;}
	.st8{font-family:'BritannicBold';}
	.st9{font-size:72px;}
	.st10{fill:#3C4899;}
	.st11{fill:#CAB6D9;}
	.st12{fill:#0A7B34;}
</style>
<g
   id="Слой_1"
   transform="translate(-178.5,-161.83634)">
	<g
   id="g7">
		<path
   d="m 293.4,209.8 c 0.2,0.2 0.4,0.4 0.5,0.5 0.2,0.2 0.3,0.4 0.5,0.6 0.2,0.3 0.5,0.6 0.7,0.9 0.3,0.3 0.5,0.7 0.6,1 0.1,0.3 0.3,0.5 0.5,0.8 0.2,0.3 0.3,0.6 0.4,0.8 0.1,0.2 0.2,0.5 0.2,0.8 0.1,0.3 0.1,0.5 0.1,0.7 0,0.3 0,0.6 0,0.9 0,0.3 0,0.6 -0.1,0.9 0,0.6 -0.1,1.2 -0.3,2 -0.2,0.8 -0.3,1.4 -0.3,2 0,0.3 0,0.7 0,1.1 0,0.5 0,0.8 0,1.1 0,0.4 -0.1,0.9 -0.2,1.3 -0.1,0.4 -0.2,0.9 -0.2,1.3 0,0.2 0,0.4 0,0.6 0,0.2 0,0.4 0,0.6 -0.1,0.5 -0.2,1.1 -0.3,1.7 -0.1,0.6 -0.3,1.1 -0.3,1.7 0,0.3 -0.1,0.5 -0.1,0.7 0,0.2 0,0.5 0,0.7 -0.1,0.5 -0.2,1.3 -0.4,2.4 -0.2,1.1 -0.3,1.9 -0.4,2.3 0,0.4 -0.1,0.7 -0.2,1.1 -0.1,0.4 -0.2,0.8 -0.3,1.2 0,0.2 0,0.3 0.1,0.2 0.1,-0.1 0.1,0 0.1,0.2 -0.1,0.5 -0.2,0.9 -0.4,1.4 -0.2,0.5 -0.3,0.9 -0.4,1.4 -0.1,0.4 -0.1,0.9 -0.1,1.4 0,0.5 -0.1,1 -0.1,1.5 0,0.4 -0.2,1 -0.4,1.7 -0.2,0.8 -0.3,1.3 -0.4,1.7 -0.1,0.3 -0.1,0.7 -0.2,1 -0.1,0.3 -0.1,0.7 -0.1,1 0,0.5 -0.1,1.1 -0.2,1.6 -0.1,0.5 -0.1,1 -0.1,1.4 0,0.2 0,0.4 0.1,0.6 0.1,0.2 0.1,0.4 0,0.5 -0.1,0.2 -0.2,0.5 -0.3,0.7 -0.1,0.3 -0.3,0.5 -0.5,0.6 -0.2,0.2 -0.5,0.5 -0.8,0.8 -0.3,0.3 -0.6,0.6 -0.8,0.6 -0.6,0.2 -0.9,0.1 -1,-0.4 -0.1,-0.5 -0.1,-0.9 -0.2,-1.2 0,-0.4 -0.1,-0.7 -0.1,-1 -0.1,-0.3 -0.1,-0.7 -0.1,-1.1 0,-0.4 -0.1,-0.8 -0.4,-1.2 -0.3,-0.4 -0.3,-0.8 -0.3,-1.3 0,-0.5 0.1,-1 0.2,-1.6 0.2,-0.5 0.2,-1.1 0.3,-1.7 0,-0.5 0.1,-1.1 0.1,-1.7 0,-0.7 0.1,-1.3 0.1,-1.8 0.1,-0.7 0.2,-1.5 0.4,-2.3 0.2,-0.8 0.4,-1.6 0.4,-2.4 0.1,-0.9 0,-1.7 -0.1,-2.3 -0.1,-0.6 -0.2,-1.4 -0.1,-2.3 0,-0.7 0.2,-1.6 0.4,-2.8 0.2,-1.2 0.3,-2.2 0.4,-2.8 0,-0.6 0.1,-1.2 0,-1.8 0,-0.6 0,-1.2 0.1,-1.8 0.1,-0.6 0.2,-1.4 0.4,-2.1 0.2,-0.8 0.3,-1.5 0.3,-2 0,-0.7 0.1,-1.4 0,-2.3 0,-0.8 0,-1.6 0,-2.1 0,-1.7 -0.1,-3.1 -0.2,-4.2 -0.1,-1.1 -0.4,-1.6 -0.8,-1.7 -0.2,0 -0.4,0 -0.6,0 -0.2,0 -0.4,0 -0.6,0 -0.2,-0.1 -0.4,-0.1 -0.6,-0.3 -0.2,-0.1 -0.4,-0.2 -0.6,-0.2 -0.3,0 -0.7,-0.1 -1,-0.1 -0.4,0 -0.7,0 -1.1,-0.1 -0.3,0 -0.7,-0.1 -1,-0.2 -0.3,-0.1 -0.7,-0.1 -1,-0.1 -0.4,0 -0.8,0 -1.1,0.1 -0.3,0.1 -0.6,0.1 -1,0.2 -0.2,0 -0.4,0.1 -0.6,0.2 -0.2,0.1 -0.4,0.2 -0.6,0.2 -0.3,0 -0.6,0 -0.9,0 -0.3,-0.1 -0.6,-0.1 -0.9,0 -0.2,0 -0.4,0 -0.6,0 -0.2,0 -0.4,0 -0.6,0 -0.3,0 -0.5,0 -0.7,0.1 -0.2,0.1 -0.4,0 -0.6,0.1 -0.2,0 -0.3,0 -0.5,0 -0.2,0 -0.4,0 -0.5,0 0,0.4 -0.1,0.9 -0.1,1.3 -0.1,0.5 -0.1,0.9 -0.1,1.4 -0.1,0.8 -0.1,1.6 -0.2,2.2 0,0.6 -0.1,1.3 -0.1,2.2 0,0.6 0,0.9 0.2,0.9 0.1,0 0.2,0.4 0.2,0.9 0,0.8 -0.1,1.8 -0.2,3.1 -0.2,1.3 -0.2,2.3 -0.2,3.1 0,0.8 0,1.6 0.1,2.2 0.1,0.6 0.1,1.4 0.2,2.2 0,0.9 0.1,1.8 0.1,2.6 0,0.8 0,1.6 0.1,2.4 0,0.5 0,1.1 0,1.7 0,0.6 0,1.1 0,1.6 0,0.6 0.2,1.1 0.3,1.6 0.2,0.5 0.3,1 0.3,1.4 0.1,0.5 0.3,0.7 0.6,0.7 0.3,0 0.6,-0.2 0.8,-0.4 0.3,-0.3 0.6,-0.5 0.9,-0.8 0.3,-0.3 0.5,-0.3 0.6,-0.2 0.4,0.3 0.1,1.4 -0.7,3.5 -0.9,2.1 -1.6,3.5 -2.1,4.1 -0.1,0.2 -0.3,0.4 -0.4,0.6 -0.1,0.3 -0.3,0.5 -0.4,0.6 -0.2,0.2 -0.4,0.3 -0.7,0.5 -0.3,0.2 -0.6,0.3 -0.8,0.3 -0.6,0 -1,-0.2 -1.3,-0.4 -0.3,-0.3 -0.6,-0.8 -1,-1.7 -0.3,-0.8 -0.5,-1.9 -0.7,-3.4 -0.2,-1.5 -0.4,-3.3 -0.5,-5.5 -0.1,-0.7 -0.1,-1.5 -0.1,-2.3 0,-0.8 0,-1.6 -0.1,-2.5 0,-0.4 0,-0.7 0,-1.1 0,-0.4 0,-0.8 0,-1.2 -0.1,-1.1 -0.1,-2 -0.2,-3 -0.1,-0.9 -0.1,-2 -0.1,-3.1 0,-0.5 0,-1 0.1,-1.4 0.1,-0.4 0.1,-0.9 0.1,-1.4 0.1,-0.8 0.1,-1.6 0.2,-2.5 0,-0.9 0.1,-1.7 0.1,-2.4 0.1,-0.9 0.1,-1.8 0.2,-2.5 0.1,-0.7 0.1,-1.5 0.2,-2.3 0,-0.5 0.1,-0.9 0.1,-1.4 0,-0.5 0.1,-0.9 0.1,-1.4 -0.2,0 -0.4,0 -0.6,0.1 -0.2,0 -0.4,0.1 -0.6,0.1 -0.3,0 -0.7,0.1 -1,0.2 -0.3,0.1 -0.6,0.2 -0.9,0.2 -0.5,0.1 -1.2,0.1 -2,0.1 -0.1,0 -0.2,-0.1 -0.4,-0.3 -0.2,-0.2 -0.2,-0.4 -0.2,-0.7 0,-0.2 0,-0.4 0.1,-0.6 0.1,-0.3 0.2,-0.5 0.3,-0.8 0,-0.2 0.1,-0.3 0.1,-0.5 0,-0.2 0,-0.4 0.1,-0.5 0.3,-0.9 0.6,-1.7 1.1,-2.4 0.5,-0.7 0.9,-1.1 1.5,-1.3 0.1,0 0.3,0 0.6,-0.1 0.3,0 0.6,-0.1 1,-0.1 0.4,0 0.9,-0.1 1.4,-0.1 0.5,0 1.1,-0.1 1.7,-0.1 0.4,-0.7 0.8,-1.3 1.2,-1.7 0.4,-0.4 0.9,-0.7 1.3,-0.8 0.3,0 0.5,0.1 0.7,0.4 0.2,0.3 0.3,0.9 0.2,1.8 0.2,0 0.4,0 0.6,0 0.2,0 0.4,0 0.6,0 0.3,0 0.7,0 1.2,-0.1 0.4,0 0.9,0 1.3,-0.1 0.4,0 0.7,0 1,0 0.3,0 0.6,0 1,0 0.5,0 0.9,0 1.3,0 0.3,0 0.7,0.1 1.2,0.1 0.4,0 0.8,0 1.2,0 0.4,0 0.8,0 1.1,0.1 0.2,0 0.4,0 0.7,0 0.2,0 0.4,0 0.6,0 0.3,0 0.5,0.1 0.7,0.2 0.2,0.1 0.4,0.2 0.6,0.2 0.1,0 0.3,0.1 0.5,0.2 0.2,0.1 0.4,0.2 0.6,0.4 0.2,0.1 0.5,0.3 0.8,0.5 0.3,0.2 0.6,0.4 0.9,0.7 0.2,0.2 0.3,0.3 0.6,0.5 0.2,0.2 0.4,0.3 0.6,0.5 0.2,0.2 0.4,0.4 0.7,0.6 0.1,0.6 0.3,0.8 0.5,1.1 z"
   id="path9"
   inkscape:connector-curvature="0" />
		<path
   d="m 300.3,240 c 0.5,-0.6 1.3,-1.4 2.3,-2.2 1,-0.9 1.8,-1.6 2.3,-2.2 0.3,-0.5 0.7,-1 1.2,-1.6 0.5,-0.6 1.1,-1.4 1.8,-2.3 0.4,-0.5 0.9,-0.8 1.3,-1.1 0.4,-0.3 0.9,-0.4 1.3,-0.5 0.6,0 1,0.1 1.4,0.3 0.3,0.3 0.5,0.7 0.6,1.3 0.1,0.9 -0.1,2.4 -0.7,4.5 -0.5,2.1 -0.7,3.7 -0.6,4.7 0,0.2 0.1,0.4 0.2,0.5 0.1,0.1 0.2,0.1 0.4,0.1 l 0.2,0 c 0.4,-0.3 0.9,-0.7 1.5,-1.2 0.6,-0.5 1.2,-1.1 1.9,-1.8 0.6,-0.6 1.2,-1.4 2.1,-2.4 0.9,-1 1.8,-2.1 2.9,-3.4 0.4,-0.4 0.9,-0.9 1.5,-1.6 0.5,-0.6 1.2,-1.4 1.8,-2.3 0.3,-0.4 0.7,-0.8 1.2,-1.1 0.5,-0.3 1.2,-0.5 2,-0.5 0.5,0 0.9,0 1.2,0.2 0.3,0.2 0.4,0.5 0.5,0.9 0,0.2 0,0.3 0,0.5 0,0.2 0,0.3 0,0.4 -0.1,0.7 -0.3,1.6 -0.5,2.6 -0.2,1 -0.5,2.3 -0.9,3.7 -0.3,0.9 -0.6,2 -1,3.2 -0.3,1.2 -0.7,2.6 -1,4.1 l 0.3,0.3 c 0.5,-0.3 1.1,-0.9 2,-1.9 0.9,-1 2,-2.2 3.3,-3.8 l 1.7,3.1 c -0.2,0.2 -0.4,0.5 -0.6,0.7 -0.2,0.3 -0.6,0.6 -1,1 -2.3,2 -4.3,3.9 -6,5.8 -1.6,1.9 -2.9,3.7 -3.8,5.5 -1.3,2.7 -2.5,4.9 -3.4,6.6 -0.9,1.7 -1.6,2.9 -2,3.6 -1.4,2.3 -2.8,4 -4.2,5.1 -1.4,1.2 -2.7,1.8 -4.1,1.9 -0.5,0 -0.9,0 -1.1,-0.2 -0.3,-0.2 -0.4,-0.5 -0.4,-1 0,-0.2 0,-0.5 0.1,-0.9 0.1,-0.4 0.3,-0.8 0.5,-1.2 0.4,-0.7 0.7,-1.4 1.1,-2.1 l 1,-1 c 0.1,-0.3 0.1,-0.5 0.1,-0.6 0.1,-0.1 0.2,-0.3 0.4,-0.5 0.2,-0.2 0.3,-0.4 0.6,-0.6 0.1,-0.4 0.5,-1.2 1.1,-2.2 0.6,-1 1.5,-2.4 2.7,-4 0.9,-1.2 1.6,-2.3 2.4,-3.2 0.7,-0.9 1.3,-1.7 1.8,-2.4 0.1,-0.2 0.2,-0.4 0.2,-0.7 0.1,-0.3 0.1,-0.5 0.2,-0.8 0.3,-0.6 0.5,-1.4 0.8,-2.3 0.3,-0.9 0.6,-1.9 1,-3.2 0.2,-0.7 0.3,-1.5 0.4,-2.4 0.1,-0.9 0.2,-1.9 0.2,-2.9 -0.1,-0.1 -0.1,-0.2 -0.1,-0.4 0,-0.1 -0.1,-0.4 -0.2,-0.6 -0.4,0.2 -0.8,0.6 -1.3,1.1 -0.5,0.5 -1,1 -1.5,1.6 -0.7,1.1 -1.4,2 -2.1,2.7 -0.7,0.7 -1.5,1.3 -2.2,1.7 -0.4,1 -1,1.8 -1.8,2.4 -0.8,0.6 -1.7,0.9 -2.7,1 -0.8,0.1 -1.4,-0.1 -1.8,-0.4 -0.4,-0.3 -0.7,-0.9 -0.7,-1.6 0,-0.1 0,-0.3 0,-0.5 0,-0.2 0,-0.5 0.1,-0.7 -0.1,-0.2 -0.3,-0.5 -0.4,-1 0.1,-0.4 0.1,-0.9 0.1,-1.4 -0.1,-0.7 -0.2,-1.2 -0.3,-1.6 -0.1,-0.3 -0.3,-0.5 -0.6,-0.5 l -0.1,0.1 c -0.2,0.2 -0.6,0.5 -1,0.9 -0.4,0.4 -1,0.9 -1.6,1.5 -0.1,-0.3 -0.3,-0.6 -0.5,-1 -0.2,-0.4 -0.4,-0.9 -0.7,-1.4 -0.1,-0.1 -0.1,-0.3 -0.2,-0.4 -0.4,0.1 -0.5,0 -0.6,0 z"
   id="path11"
   inkscape:connector-curvature="0" />
		<path
   d="m 330.5,237.3 c 0.1,-0.2 0.3,-0.4 0.4,-0.7 0.2,-0.3 0.3,-0.6 0.6,-0.9 0.9,-1.4 1.8,-2.6 2.7,-3.7 0.9,-1.1 1.7,-2.1 2.5,-3 0.4,-0.5 0.9,-1 1.5,-1.8 0.6,-0.8 1.2,-1.5 2,-2.5 0.8,-0.4 1.7,-0.9 2.7,-1.4 0.6,-0.1 1.1,0.1 1.5,0.5 0.3,0.4 0.5,1 0.6,1.7 0.1,0.7 0.1,1.4 0,2.1 0,0.8 -0.1,1.6 -0.2,2.4 -0.2,0.6 -0.3,1.3 -0.4,1.9 0,0.2 0.1,0.3 0.1,0.4 0.1,0.1 0.2,0.1 0.4,0.1 0.3,-0.2 1,-0.8 1.9,-1.9 0.9,-1.1 2.1,-2.6 3.6,-4.5 1.3,-1.7 2.4,-2.9 3.4,-3.8 1,-0.8 1.8,-1.3 2.4,-1.4 0.7,-0.1 1.2,0.1 1.6,0.6 0.4,0.5 0.6,1.2 0.7,2.2 0.1,1.4 0.1,2.8 0,4.1 -0.1,1.3 -0.3,2.6 -0.8,3.9 -0.1,0.2 -0.1,0.4 -0.1,0.6 0,0.2 0,0.3 0,0.5 0,0.2 0.2,0.3 0.5,0.4 0.2,-0.2 0.4,-0.4 0.6,-0.8 0.2,-0.3 0.5,-0.7 0.8,-1.2 0.5,-0.5 1,-1 1.5,-1.5 0.5,-0.5 1,-1 1.6,-1.5 0.6,-0.6 1.2,-1 1.9,-1.3 0.7,-0.3 1.3,-0.5 2,-0.6 0.1,0 0.2,0 0.4,0.1 0.1,0.1 0.2,0.1 0.4,0.2 0.6,0.4 1.1,0.8 1.4,1.2 0.3,0.4 0.7,0.7 0.8,0.9 1.1,1.8 2,3.1 2.8,4 0.8,0.9 1.5,1.3 2,1.2 0.1,0 0.2,0 0.3,-0.1 0.1,-0.1 0.2,-0.2 0.3,-0.3 0.6,1.1 1.2,2.1 1.6,3.1 -0.8,0.7 -1.5,1.3 -2.1,1.7 -0.6,0.4 -1.2,0.6 -1.7,0.7 -1.6,0.1 -3.4,-0.8 -5.3,-2.7 -1.9,-1.9 -3.3,-2.9 -4.2,-2.8 -1.2,0.1 -3.1,2.1 -5.6,5.9 -2.5,3.8 -4.1,5.8 -4.8,5.8 -0.4,0 -0.8,0 -1.4,0 -0.2,-0.1 -0.3,-0.2 -0.5,-0.4 -0.1,-0.2 -0.2,-0.5 -0.2,-0.8 0,-0.4 0,-0.8 0.1,-1.4 0.1,-0.6 0.2,-1.3 0.4,-2.1 0.2,-1 0.4,-1.8 0.5,-2.4 0.1,-0.6 0.2,-1 0.2,-1.3 0,-0.3 0.1,-0.9 0.1,-1.8 0,-0.9 0.1,-2.1 0.2,-3.6 0,-0.3 -0.1,-0.4 -0.3,-0.6 -0.2,-0.2 -0.3,-0.2 -0.5,-0.2 -0.2,0 -0.3,0.1 -0.5,0.2 -0.2,0.1 -0.4,0.3 -0.6,0.6 -0.3,0.3 -0.5,0.7 -0.8,1 -0.3,0.3 -0.8,0.8 -1.5,1.4 -0.7,1 -1.5,2 -2.3,3.1 -0.8,1 -1.6,2.1 -2.4,3.2 -1.3,1.8 -2.3,3.1 -3,3.9 -0.8,0.9 -1.3,1.3 -1.5,1.3 -0.7,0.1 -1.2,0 -1.6,-0.1 -0.4,-0.1 -0.6,-0.4 -0.6,-0.7 -0.1,-0.8 0.2,-2.4 0.8,-4.9 0.6,-2.5 0.9,-4.3 0.8,-5.3 0,-0.2 -0.1,-0.3 -0.2,-0.4 -0.1,-0.1 -0.3,-0.1 -0.4,-0.1 -0.3,0 -0.6,0.2 -1,0.6 -0.4,0.3 -0.8,0.9 -1.2,1.6 -0.3,0.4 -0.7,0.9 -1.1,1.4 -0.4,0.5 -0.9,1.2 -1.6,1.9 -0.1,0.2 -0.1,0.4 -0.2,0.6 -0.1,0.2 -0.2,0.4 -0.3,0.5 -0.1,-0.3 -0.3,-0.8 -0.6,-1.3 -0.3,-0.3 -0.6,-0.9 -1.1,-1.7 z"
   id="path13"
   inkscape:connector-curvature="0" />
		<path
   d="m 374.7,233.5 c 0.2,-0.5 0.6,-1 1,-1.6 0.4,-0.5 0.9,-1.1 1.5,-1.7 0,-0.5 0.1,-0.9 0.1,-1.4 0,-0.5 0,-0.9 0,-1.4 0,-0.3 0.1,-0.7 0.2,-1.2 0.1,-0.5 0.2,-1 0.4,-1.5 0.2,-0.5 0.4,-1.2 0.7,-2 0.3,-0.8 0.7,-1.7 1.2,-2.7 0.4,-0.6 0.9,-1.2 1.4,-1.9 0.5,-0.7 1,-1.4 1.4,-2.1 0.2,-0.2 0.5,-0.5 0.8,-0.7 0.3,-0.2 0.6,-0.5 0.9,-0.7 0.3,-0.1 0.6,-0.2 0.9,-0.3 0.3,-0.1 0.7,-0.2 1.1,-0.2 0.6,-0.1 1.1,0 1.4,0.1 0.4,0.1 0.7,0.3 0.9,0.5 0.2,0.2 0.4,0.4 0.5,0.8 0.2,0.4 0.4,0.8 0.6,1.3 0.1,0.5 0.2,1 0.4,1.5 0,-0.1 0,-0.1 -0.1,0.2 -0.1,0.3 -0.1,0.7 -0.3,1.3 l -0.2,1.1 c -0.2,1.1 -0.9,2.5 -1.9,4.1 -1,1.6 -2.4,3.4 -4.2,5.4 -0.1,0.2 -0.3,0.4 -0.4,0.6 -0.1,0.3 -0.1,0.5 -0.1,0.8 0,0.5 0.2,0.9 0.4,1.3 0.2,0.4 0.5,0.6 0.8,0.8 0.2,0.1 0.5,0.2 0.9,0.3 0.4,0.1 0.9,0.2 1.5,0.3 0.9,-0.2 1.7,-0.4 2.4,-0.7 0.7,-0.3 1.4,-0.6 1.9,-1 0.1,-0.1 0.3,-0.2 0.5,-0.3 0.2,-0.2 0.5,-0.3 0.7,-0.6 0.4,0.7 0.7,1.2 1,1.8 0.3,0.5 0.5,1 0.7,1.4 -1.2,1.4 -2.3,2.5 -3.4,3.3 -1,0.8 -2,1.2 -2.9,1.3 -0.4,0.3 -0.8,0.5 -1.2,0.6 -0.5,0.1 -1,0.3 -1.7,0.3 -0.9,0.1 -1.6,0 -2.3,-0.2 -0.7,-0.2 -1.3,-0.5 -1.8,-1 -0.3,-0.2 -0.5,-0.5 -0.8,-1 -0.3,-0.4 -0.6,-1 -0.9,-1.6 -0.3,-0.5 -0.5,-0.9 -0.7,-1.1 -0.2,-0.2 -0.4,-0.3 -0.7,-0.3 -0.2,0 -0.4,0.1 -0.6,0.3 -0.2,0.2 -0.5,0.5 -0.7,0.9 -0.1,-0.3 -0.3,-0.8 -0.6,-1.3 0.1,-0.5 -0.2,-1.1 -0.7,-1.8 z M 385,221.1 c -0.5,0 -1.1,0.8 -1.9,2.2 -0.7,1.4 -1.1,2.4 -1,3.1 0,0.1 0,0.2 0.1,0.3 0.1,0.1 0.2,0.1 0.4,0.1 0.3,0 0.5,-0.2 0.6,-0.5 0.1,-0.3 0.3,-0.5 0.4,-0.8 0.2,-0.3 0.5,-0.5 0.7,-0.8 0.2,-0.3 0.4,-0.6 0.6,-0.9 0.3,-0.4 0.4,-0.7 0.5,-1 0.1,-0.3 0.2,-0.7 0.1,-1 0,-0.2 -0.1,-0.4 -0.2,-0.5 -0.1,-0.1 -0.2,-0.2 -0.3,-0.2 z"
   id="path15"
   inkscape:connector-curvature="0" />
		<path
   d="m 435.7,230.7 c -0.2,0.3 -0.4,0.6 -0.7,0.9 -0.3,0.3 -0.6,0.6 -0.8,0.8 -0.3,0.2 -0.6,0.4 -1,0.6 -0.4,0.2 -0.7,0.3 -1,0.5 -0.3,0.1 -0.7,0.3 -1,0.4 -0.3,0.1 -0.7,0.2 -0.9,0.2 -0.4,0 -0.8,0 -1.1,-0.1 -0.3,-0.1 -0.7,-0.2 -1.1,-0.3 -0.4,-0.1 -0.7,-0.4 -1,-0.6 -0.3,-0.3 -0.6,-0.5 -0.9,-0.9 -0.3,-0.3 -0.5,-0.7 -0.8,-1.1 -0.3,-0.4 -0.5,-0.8 -0.7,-1.2 -0.1,-0.3 -0.2,-0.6 -0.4,-1 -0.1,-0.4 -0.2,-0.7 -0.3,-1 -0.1,0.3 -0.3,0.6 -0.4,0.9 -0.2,0.3 -0.3,0.6 -0.4,0.8 -0.2,0.4 -0.5,0.9 -0.8,1.3 -0.3,0.4 -0.5,0.8 -0.8,1.1 -0.4,0.6 -0.9,1.2 -1.4,1.7 -0.5,0.5 -0.9,0.9 -1.3,1.2 -0.5,0.4 -1,0.6 -1.5,0.7 -0.5,0.1 -0.9,0.2 -1.4,0.2 -0.4,0 -0.8,-0.2 -1.2,-0.4 -0.4,-0.2 -0.7,-0.5 -1,-0.8 -0.2,-0.2 -0.4,-0.5 -0.7,-0.9 -0.3,-0.3 -0.5,-0.7 -0.6,-1.1 -0.1,-0.4 -0.3,-0.8 -0.4,-1.2 -0.1,-0.5 -0.2,-0.9 -0.3,-1.4 -0.1,-0.3 -0.2,-0.7 -0.2,-1.1 -0.1,-0.4 -0.1,-0.8 -0.2,-1.3 -0.4,0.7 -0.7,1.3 -1.1,2 -0.4,0.7 -0.8,1.3 -1.2,1.8 -0.5,0.7 -0.9,1.4 -1.4,2 -0.5,0.6 -1,1.2 -1.4,1.7 -0.4,0.4 -0.8,0.9 -1.2,1.3 -0.4,0.4 -0.8,0.8 -1.2,1.1 -0.4,0.3 -0.9,0.6 -1.3,0.9 -0.4,0.3 -0.8,0.4 -1.2,0.5 -0.5,0.2 -1,0.2 -1.4,0.2 -0.4,-0.1 -0.8,-0.2 -1.2,-0.5 -0.3,-0.2 -0.6,-0.5 -0.8,-0.9 -0.3,-0.4 -0.5,-0.8 -0.6,-1.4 -0.1,-0.4 -0.2,-0.9 -0.2,-1.5 0,-0.6 0,-1.2 0,-1.9 0,-0.5 0,-1 0,-1.6 0,-0.6 0.1,-1.2 0.1,-1.8 -0.1,0.4 -0.3,0.7 -0.4,1.2 -0.2,0.4 -0.4,0.8 -0.6,1.2 -0.2,0.4 -0.4,0.7 -0.7,1.1 -0.2,0.4 -0.5,0.7 -0.7,1 -0.3,0.3 -0.5,0.6 -0.7,0.9 -0.2,0.3 -0.5,0.5 -0.6,0.7 l -1.6,-3.1 c 0.3,-0.2 0.5,-0.5 0.8,-0.8 0.3,-0.3 0.6,-0.7 0.9,-1.1 0.4,-0.6 1,-1.3 1.6,-2.2 0.6,-0.9 1.2,-2 1.9,-3.2 0.3,-0.7 0.7,-1.4 1,-2.2 0.4,-0.8 0.8,-1.6 1.2,-2.5 0.2,-0.5 0.4,-1 0.6,-1.5 0.2,-0.5 0.4,-1.1 0.7,-1.6 0.2,-0.5 0.9,-1 2,-1.7 1.1,-0.7 1.9,-0.9 2.3,-0.7 0.2,0.1 0.5,0.3 0.8,0.5 0.3,0.2 0.5,0.6 0.4,1.2 0,0.2 -0.1,0.5 -0.2,0.7 -0.1,0.3 -0.2,0.6 -0.3,1 -0.1,0.2 -0.1,0.4 -0.2,0.6 -0.1,0.2 -0.2,0.4 -0.2,0.6 -0.1,0.2 -0.2,0.4 -0.4,0.6 -0.2,0.2 -0.3,0.4 -0.3,0.6 -0.1,0.6 -0.3,1.3 -0.4,1.9 -0.1,0.6 -0.2,1.2 -0.3,1.8 -0.1,0.6 -0.2,1.2 -0.3,1.7 -0.1,0.6 -0.2,1.1 -0.3,1.6 -0.1,0.8 0,1.5 0.1,2 0.1,0.5 0.3,0.9 0.6,1 0.3,0.1 0.7,0 1.2,-0.3 0.5,-0.3 1.1,-0.9 1.7,-1.7 0.1,-0.2 0.2,-0.4 0.3,-0.7 0.1,-0.3 0.3,-0.5 0.4,-0.7 0.2,-0.2 0.4,-0.4 0.7,-0.5 0.3,-0.1 0.5,-0.3 0.7,-0.6 0.1,-0.2 0.2,-0.3 0.2,-0.6 0,-0.2 0.1,-0.4 0.2,-0.6 0.4,-0.6 0.8,-1.3 1.2,-2 0.4,-0.8 0.8,-1.6 1.3,-2.5 0.3,-0.6 0.6,-1.1 0.9,-1.5 0.3,-0.4 0.7,-0.8 1,-1 0.3,-0.2 0.6,-0.4 0.9,-0.6 0.3,-0.1 0.6,-0.2 0.9,-0.3 0.3,-0.1 0.7,0.1 1,0.4 0.4,0.3 0.6,0.8 0.6,1.4 0,0.3 0,0.6 -0.1,0.9 -0.1,0.4 -0.2,0.7 -0.2,1.1 0,0.4 0,0.7 -0.1,1.1 0,0.4 -0.1,0.7 -0.1,1 0,0.4 0,0.8 0,1.3 0,0.5 0,0.9 0,1.3 0,0.4 0.1,0.8 0.1,1.3 0.1,0.4 0.1,0.8 0.2,1.2 0.1,0.4 0.3,0.7 0.5,1 0.2,0.3 0.4,0.4 0.7,0.3 0.1,0 0.3,-0.1 0.5,-0.3 0.2,-0.2 0.4,-0.3 0.6,-0.4 0.2,-0.1 0.4,-0.2 0.5,-0.3 0.2,-0.1 0.3,-0.2 0.5,-0.3 0.2,-0.2 0.3,-0.3 0.3,-0.5 0.1,-0.2 0.2,-0.3 0.3,-0.5 0.1,-0.2 0.3,-0.3 0.6,-0.5 0.3,-0.2 0.4,-0.4 0.6,-0.6 0.1,-0.2 0.2,-0.4 0.2,-0.6 0,-0.2 0,-0.4 0.1,-0.5 0.1,-0.2 0.2,-0.5 0.4,-0.8 0.1,-0.3 0.2,-0.6 0.3,-0.8 0.1,-0.3 0.4,-0.6 0.7,-1 0.4,-0.4 0.7,-0.6 1,-0.8 0.4,-0.2 0.7,-0.4 1,-0.4 0.3,0 0.6,-0.1 1,-0.2 0.3,-0.1 0.6,-0.1 0.9,0 0.3,0.1 0.6,0.2 0.8,0.4 0.2,0.2 0.4,0.5 0.6,0.8 0.2,0.3 0.3,0.8 0.3,1.3 0,0.5 0.1,0.9 0.2,1.4 0.1,0.5 0.2,0.8 0.3,1.2 0.1,0.4 0.2,0.8 0.4,1.1 0.1,0.3 0.3,0.6 0.4,0.9 0.2,0.3 0.5,0.6 0.7,0.8 0.2,0.2 0.5,0.3 0.8,0.3 0.2,0 0.5,-0.1 0.8,-0.3 0.3,-0.2 0.7,-0.6 1.1,-1.2 l 1.6,3 z"
   id="path17"
   inkscape:connector-curvature="0" />
		<path
   d="m 433.6,228.3 c 0.2,-0.5 0.6,-1 1,-1.6 0.4,-0.6 0.9,-1.1 1.5,-1.7 0,-0.5 0.1,-0.9 0.1,-1.4 0,-0.5 0,-0.9 0,-1.4 0,-0.3 0.1,-0.7 0.2,-1.2 0.1,-0.5 0.2,-1 0.4,-1.5 0.2,-0.5 0.4,-1.2 0.7,-2 0.3,-0.8 0.7,-1.7 1.2,-2.7 0.4,-0.6 0.9,-1.2 1.4,-1.9 0.5,-0.7 1,-1.4 1.4,-2.1 0.2,-0.2 0.5,-0.5 0.8,-0.7 0.3,-0.2 0.6,-0.5 0.9,-0.7 0.3,-0.1 0.6,-0.2 0.9,-0.3 0.3,-0.1 0.7,-0.2 1.1,-0.2 0.6,-0.1 1.1,0 1.4,0.1 0.4,0.1 0.7,0.3 0.9,0.5 0.2,0.2 0.4,0.4 0.5,0.8 0.2,0.4 0.4,0.8 0.6,1.3 0.1,0.5 0.2,1 0.4,1.5 0,-0.1 0,-0.1 -0.1,0.2 -0.1,0.3 -0.1,0.7 -0.3,1.3 l -0.2,1.1 c -0.2,1.1 -0.9,2.5 -1.9,4.1 -1,1.6 -2.4,3.4 -4.2,5.4 -0.1,0.2 -0.3,0.4 -0.4,0.6 -0.1,0.3 -0.1,0.5 -0.1,0.8 0,0.5 0.2,0.9 0.4,1.3 0.2,0.4 0.5,0.6 0.8,0.8 0.2,0.1 0.5,0.2 0.9,0.3 0.4,0.1 0.9,0.2 1.5,0.3 0.9,-0.1 1.7,-0.4 2.4,-0.7 0.7,-0.3 1.4,-0.6 1.9,-1 0.1,-0.1 0.3,-0.2 0.5,-0.3 0.2,-0.1 0.5,-0.3 0.7,-0.6 0.4,0.7 0.7,1.2 1,1.8 0.3,0.5 0.5,1 0.7,1.4 -1.2,1.4 -2.3,2.5 -3.4,3.3 -1,0.8 -2,1.2 -2.9,1.3 -0.4,0.3 -0.8,0.5 -1.2,0.6 -0.5,0.1 -1,0.2 -1.7,0.3 -0.9,0.1 -1.6,0 -2.3,-0.2 -0.7,-0.2 -1.3,-0.5 -1.8,-1 -0.3,-0.2 -0.5,-0.5 -0.8,-1 -0.3,-0.4 -0.6,-1 -0.9,-1.6 -0.3,-0.5 -0.5,-0.9 -0.7,-1.1 -0.2,-0.2 -0.4,-0.3 -0.7,-0.3 -0.2,0 -0.4,0.1 -0.6,0.3 -0.2,0.2 -0.5,0.5 -0.7,0.9 -0.1,-0.3 -0.3,-0.8 -0.6,-1.3 0.1,-0.4 -0.2,-1.1 -0.7,-1.8 z m 10.2,-12.4 c -0.5,0 -1.1,0.8 -1.9,2.2 -0.8,1.4 -1.1,2.4 -1,3.1 0,0.1 0.1,0.2 0.1,0.3 0.1,0.1 0.2,0.1 0.4,0.1 0.3,0 0.5,-0.2 0.6,-0.5 0.1,-0.3 0.3,-0.5 0.4,-0.8 0.2,-0.3 0.5,-0.5 0.7,-0.8 0.2,-0.3 0.4,-0.6 0.6,-0.9 0.3,-0.4 0.4,-0.7 0.5,-1 0.1,-0.3 0.2,-0.7 0.1,-1 0,-0.2 -0.1,-0.4 -0.2,-0.5 0,-0.1 -0.1,-0.2 -0.3,-0.2 z"
   id="path19"
   inkscape:connector-curvature="0" />
		<path
   d="m 451.2,226.8 0.3,-0.3 c 0,-0.3 0.1,-0.6 0.4,-1 0.3,-0.4 0.7,-0.8 1.2,-1.3 0.3,-0.3 0.7,-0.6 1,-0.8 0.4,-0.3 0.7,-0.6 1,-0.9 1.4,-1.4 2.7,-2.7 4,-4 0.7,-0.8 1.5,-1.4 2.2,-2 0.8,-0.6 1.5,-1 2.1,-1.4 0.4,-0.7 1.3,-1.4 2.6,-2.2 1.3,-0.8 2.3,-1.2 3.2,-1.3 0.3,0 0.6,0 0.8,0.2 0.2,0.2 0.4,0.4 0.4,0.7 l 0.2,1.9 c 0.1,0.7 -0.1,1.3 -0.4,1.9 -0.3,0.6 -0.9,1.1 -1.6,1.6 -0.5,0.3 -1,0.6 -1.5,0.9 -0.5,0.3 -1,0.6 -1.5,0.9 -0.2,0.3 -0.6,0.7 -1.4,1.4 -0.7,0.7 -1.8,1.7 -3,2.9 -0.6,0.5 -1.1,1 -1.5,1.5 -0.4,0.4 -0.7,0.8 -0.8,1 -0.2,0.5 -0.3,1 -0.4,1.5 -0.1,0.5 -0.1,1.2 0,1.9 0,0.5 0.2,1 0.4,1.4 0.2,0.4 0.5,0.7 0.8,0.9 0.2,0.1 0.6,0.3 1,0.4 0.4,0.1 0.9,0.2 1.6,0.4 0.3,-0.2 0.8,-0.3 1.3,-0.5 0.6,-0.2 1.2,-0.4 1.9,-0.7 0.8,-0.5 1.5,-1.1 2.3,-1.7 0.8,-0.6 1.6,-1.2 2.3,-1.8 0.1,-0.1 0.3,-0.2 0.4,-0.3 0.2,-0.1 0.3,-0.2 0.5,-0.4 0.2,-0.3 0.5,-0.7 0.9,-1.1 0.4,-0.4 0.8,-0.9 1.4,-1.5 1.1,1.9 1.7,3 1.7,3.1 -0.8,0.8 -1.6,1.6 -2.4,2.4 -0.8,0.8 -1.8,1.5 -2.9,2.1 -0.3,0.3 -0.6,0.6 -0.9,0.9 -1.1,1.3 -2.3,2.3 -3.8,3 -1.5,0.7 -3.2,1.2 -5.2,1.4 -0.4,0 -0.8,0 -1.2,0 -0.4,0 -0.7,-0.1 -0.9,-0.2 -0.7,-0.4 -1.4,-0.8 -1.9,-1.1 -0.5,-0.3 -1,-0.6 -1.4,-1 -0.4,-0.3 -0.7,-0.6 -0.9,-0.9 -0.2,-0.3 -0.4,-0.7 -0.5,-1.2 -0.1,-0.5 -0.2,-1 -0.3,-1.7 0,-0.2 0,-0.5 0.1,-0.9 0.1,-0.4 0.1,-0.7 0.1,-0.9 -0.2,-0.5 -0.5,-1 -0.7,-1.5 -0.3,-0.7 -0.6,-1.2 -1,-1.7 z"
   id="path21"
   inkscape:connector-curvature="0" />
		<path
   d="m 473.3,224.8 c 0.1,-0.2 0.3,-0.4 0.4,-0.7 0.2,-0.3 0.3,-0.6 0.6,-0.9 0.9,-1.4 1.8,-2.6 2.7,-3.7 0.9,-1.1 1.7,-2.1 2.5,-3 0.4,-0.5 0.9,-1 1.5,-1.8 0.6,-0.7 1.2,-1.5 2,-2.5 0.8,-0.4 1.7,-0.9 2.7,-1.4 0.6,-0.1 1.1,0.1 1.5,0.5 0.3,0.4 0.5,1 0.6,1.7 0.1,0.7 0.1,1.4 0,2.1 0,0.8 -0.1,1.6 -0.2,2.4 -0.2,0.6 -0.3,1.3 -0.4,1.9 0,0.2 0.1,0.3 0.1,0.4 0.1,0.1 0.2,0.1 0.4,0.1 0.3,-0.2 1,-0.8 1.9,-1.9 0.9,-1.1 2.1,-2.6 3.6,-4.5 1.3,-1.7 2.4,-2.9 3.4,-3.8 1,-0.9 1.8,-1.3 2.4,-1.4 0.7,-0.1 1.2,0.1 1.6,0.6 0.4,0.5 0.6,1.2 0.7,2.2 0.1,1.4 0.1,2.8 0,4.1 -0.1,1.3 -0.3,2.6 -0.8,3.9 -0.1,0.2 -0.1,0.4 -0.1,0.6 0,0.2 0,0.3 0,0.5 0,0.2 0.2,0.3 0.5,0.4 0.2,-0.2 0.4,-0.4 0.6,-0.8 0.2,-0.3 0.5,-0.7 0.8,-1.2 0.5,-0.5 1,-1 1.5,-1.5 0.5,-0.5 1,-1 1.6,-1.5 0.6,-0.6 1.2,-1 1.9,-1.3 0.7,-0.3 1.3,-0.5 2,-0.6 0.1,0 0.2,0 0.4,0.1 0.1,0.1 0.2,0.1 0.4,0.2 0.6,0.4 1.1,0.8 1.4,1.2 0.4,0.4 0.7,0.7 0.8,0.9 1.1,1.8 2,3.1 2.8,4 0.8,0.9 1.5,1.3 2,1.2 0.1,0 0.2,0 0.3,-0.1 0.1,-0.1 0.2,-0.2 0.3,-0.3 0.6,1.1 1.2,2.1 1.6,3.1 -0.8,0.7 -1.5,1.3 -2.1,1.7 -0.6,0.4 -1.2,0.6 -1.7,0.7 -1.6,0.1 -3.4,-0.8 -5.3,-2.7 -1.9,-1.9 -3.3,-2.9 -4.2,-2.8 -1.2,0.1 -3.1,2.1 -5.6,5.9 -2.5,3.8 -4.1,5.8 -4.8,5.8 -0.4,0 -0.8,0 -1.4,0 -0.2,-0.1 -0.3,-0.2 -0.5,-0.4 -0.1,-0.2 -0.2,-0.5 -0.2,-0.8 0,-0.4 0,-0.8 0.1,-1.4 0.1,-0.6 0.2,-1.3 0.4,-2.1 0.2,-1 0.4,-1.8 0.5,-2.4 0.1,-0.6 0.2,-1 0.2,-1.3 0,-0.3 0.1,-0.9 0.1,-1.8 0,-0.9 0.1,-2.1 0.2,-3.6 0,-0.3 -0.1,-0.4 -0.3,-0.6 -0.2,-0.1 -0.3,-0.2 -0.5,-0.2 -0.2,0 -0.3,0.1 -0.5,0.2 -0.2,0.1 -0.4,0.3 -0.6,0.6 -0.3,0.3 -0.5,0.7 -0.8,1 -0.3,0.3 -0.8,0.8 -1.5,1.4 -0.7,1 -1.5,2 -2.3,3.1 -0.8,1 -1.6,2.1 -2.4,3.2 -1.3,1.8 -2.3,3.1 -3,3.9 -0.8,0.9 -1.3,1.3 -1.5,1.3 -0.7,0.1 -1.2,0 -1.6,-0.1 -0.4,-0.1 -0.6,-0.4 -0.6,-0.7 -0.1,-0.8 0.2,-2.4 0.8,-4.9 0.6,-2.5 0.9,-4.3 0.8,-5.3 0,-0.2 -0.1,-0.3 -0.2,-0.4 -0.1,-0.1 -0.3,-0.1 -0.4,-0.1 -0.3,0 -0.6,0.2 -1,0.6 -0.4,0.3 -0.8,0.9 -1.2,1.6 -0.3,0.4 -0.7,0.9 -1.1,1.4 -0.4,0.5 -0.9,1.2 -1.6,1.9 -0.1,0.2 -0.1,0.4 -0.2,0.6 -0.1,0.2 -0.2,0.4 -0.3,0.5 -0.1,-0.3 -0.3,-0.8 -0.6,-1.3 -0.3,-0.5 -0.6,-0.9 -1.1,-1.7 z"
   id="path23"
   inkscape:connector-curvature="0" />
		<path
   d="m 517.5,221 c 0.3,-0.4 0.6,-0.8 0.9,-1.3 0.4,-0.5 0.8,-1.1 1.4,-1.8 0.2,-0.7 0.3,-1.5 0.4,-2.5 0.1,-1 0.2,-2.1 0.2,-3.5 0,-1.3 0.1,-2.5 0.2,-3.5 0.1,-1 0.2,-1.8 0.3,-2.4 0.8,-3.4 1.4,-6 1.8,-7.9 0.4,-1.9 0.7,-3 0.7,-3.3 0.6,-2.2 1.2,-4.2 1.9,-5.9 0.7,-1.7 1.4,-3.3 2.2,-4.6 0.2,-0.3 0.4,-0.5 0.6,-0.8 0.2,-0.3 0.5,-0.6 0.7,-0.9 0.8,-0.5 1.6,-0.9 2.3,-1.4 0.4,-0.2 0.8,-0.4 1.2,-0.6 0.4,-0.2 0.8,-0.3 1.3,-0.3 0.7,-0.1 1.2,0.2 1.6,0.8 0.4,0.6 0.7,1.5 0.8,2.7 0.1,0.8 0,1.6 -0.1,2.6 -0.1,1 -0.3,2 -0.6,3.2 -0.4,1.6 -0.7,2.9 -1,3.9 -0.2,1 -0.4,1.6 -0.4,1.8 0,0.5 -0.2,1.1 -0.5,1.9 -0.3,0.8 -0.7,1.7 -1.2,2.9 -0.6,1.4 -1.1,2.6 -1.4,3.3 -0.3,0.8 -0.5,1.2 -0.6,1.4 -0.1,0.2 -0.3,0.4 -0.5,0.6 -0.2,0.2 -0.3,0.4 -0.5,0.6 l 0.1,0.8 c -0.1,0.3 -0.2,0.5 -0.3,0.6 -0.3,0.8 -0.8,1.8 -1.3,3 -0.6,1.2 -1.3,2.6 -2.1,4.1 -0.5,0.8 -0.9,1.5 -1.1,2.1 -0.2,0.6 -0.3,1.1 -0.3,1.5 l 0.3,3.1 c 0.2,0.6 0.4,1.2 0.5,1.8 0.2,0.6 0.4,1.1 0.6,1.7 0.2,0.7 0.5,1.3 0.8,1.6 0.4,0.4 0.8,0.5 1.2,0.5 0.9,-0.1 1.7,-0.4 2.3,-0.9 0.6,-0.5 1,-1.2 1.2,-2.2 -0.7,-0.2 -1.2,-0.5 -1.5,-0.8 -0.4,-0.3 -0.6,-0.6 -0.6,-1 0.1,-0.2 0.2,-0.5 0.2,-0.8 0.1,-0.3 0.1,-0.6 0.2,-0.9 0,-0.2 0,-0.3 0.1,-0.5 0,-0.2 0.1,-0.4 0.1,-0.6 0.9,-2.1 1.8,-3.6 2.6,-4.7 0.8,-1.1 1.6,-1.6 2.3,-1.7 0.2,0 0.4,0 0.8,0 0.4,0 0.7,0 0.8,0 0.1,0 0.4,-0.1 0.7,-0.2 0.3,-0.1 0.5,-0.2 0.7,-0.2 0.4,0 0.7,0.1 0.9,0.3 0.2,0.3 0.3,0.6 0.3,1.1 0.1,1 -0.1,2.1 -0.6,3.3 -0.5,1.2 -0.7,1.9 -0.7,2.1 0,0.1 0.1,0.3 0.3,0.4 0.1,-0.1 0.3,-0.1 0.4,-0.2 0.1,-0.1 0.3,-0.2 0.4,-0.4 0.1,0.3 0.3,0.6 0.5,1 0.2,0.4 0.5,0.8 0.8,1.3 0.1,0.2 0.2,0.3 0.3,0.4 0.1,0.1 0.1,0.2 0.1,0.4 -0.9,1.1 -1.7,1.9 -2.4,2.5 -0.7,0.6 -1.3,0.9 -1.8,1 -0.2,0 -0.4,0 -0.6,0 -0.2,0 -0.5,0 -0.8,0 -0.3,0.4 -0.6,0.9 -1.1,1.5 -0.4,0.6 -0.9,1.2 -1.4,2 -0.2,0.2 -0.5,0.4 -0.8,0.7 -0.3,0.3 -0.7,0.7 -1.1,1.1 -0.6,0.7 -1.2,1.3 -1.9,1.7 -0.6,0.4 -1.3,0.6 -2,0.6 -0.3,0 -0.6,0 -0.9,0 -0.3,-0.1 -0.6,-0.2 -1,-0.4 -0.3,-0.1 -0.6,-0.3 -0.9,-0.5 -0.3,-0.2 -0.7,-0.5 -1.1,-0.8 -0.6,-1.4 -1,-2.7 -1.4,-3.9 -0.3,-1.2 -0.5,-2.3 -0.6,-3.4 0,-0.2 0,-0.3 -0.1,-0.5 0,-0.1 -0.1,-0.2 -0.2,-0.3 l -0.3,-0.1 -0.2,0.1 -0.3,0.4 c -0.2,-0.5 -0.5,-1 -0.8,-1.5 -0.3,-0.2 -0.6,-0.7 -1,-1.2 z m 13.8,-29.9 c 0,-0.1 0,-0.2 -0.1,-0.3 0,-0.1 -0.1,-0.1 -0.2,-0.2 -0.1,0 -0.3,0.2 -0.4,0.5 -0.2,0.4 -0.3,0.9 -0.4,1.5 -0.1,0.5 -0.2,1 -0.5,1.7 -0.3,0.7 -0.6,1.4 -1.1,2.4 -0.4,0.8 -0.7,1.7 -1.1,2.6 -0.4,0.9 -0.7,2 -1,3.1 -0.4,1.3 -0.7,2.5 -0.9,3.4 -0.2,1 -0.2,1.8 -0.2,2.3 l 0.1,0.3 c 0.2,-0.1 0.4,-0.6 0.8,-1.4 0.4,-0.9 0.8,-2.1 1.4,-3.7 0.5,-1.4 0.9,-2.5 1.2,-3.3 0.2,-0.8 0.4,-1.3 0.4,-1.6 0.1,-0.6 0.3,-1.4 0.5,-2.3 0.2,-0.9 0.4,-1.8 0.6,-2.9 0.2,-0.4 0.4,-0.8 0.5,-1.1 0.1,-0.2 0.2,-0.4 0.3,-0.6 0,-0.1 0.1,-0.3 0.1,-0.4 z"
   id="path25"
   inkscape:connector-curvature="0" />
		<path
   d="m 538.5,219.1 c 0.1,-0.1 0.2,-0.2 0.2,-0.3 0.1,-0.1 0.1,-0.2 0.1,-0.4 0.4,-0.4 0.8,-0.8 1.2,-1.5 0.5,-0.6 1,-1.3 1.5,-2.2 0.5,-0.7 0.9,-1.5 1.4,-2.2 0.5,-0.7 1,-1.5 1.6,-2.3 0.5,-0.7 0.9,-1.5 1.3,-2.3 0.4,-0.8 0.9,-1.6 1.4,-2.4 0.9,-0.5 1.6,-0.9 2.1,-1.1 0.5,-0.2 0.8,-0.4 1,-0.4 0.4,0 0.6,0.1 0.8,0.3 0.2,0.2 0.3,0.5 0.4,0.9 0,0.1 0,0.3 -0.1,0.6 0,0.3 -0.1,0.6 -0.2,0.9 -0.1,0.5 -0.3,1 -0.4,1.5 -0.1,0.8 -0.3,1.7 -0.5,2.5 -0.2,0.8 -0.4,1.7 -0.5,2.5 -0.1,1 -0.2,2 -0.3,2.8 -0.1,0.9 -0.1,1.6 0,2.3 0.1,1.3 0.3,2.3 0.4,2.9 0.2,0.6 0.4,0.9 0.6,0.8 0.2,-0.2 0.5,-0.4 0.8,-0.6 0.3,-0.2 0.7,-0.5 1.2,-0.8 0.4,-0.5 0.8,-1.1 1.3,-1.8 0.5,-0.7 1,-1.5 1.7,-2.5 0.4,-0.7 0.7,-1.4 1.1,-2 0.1,-0.2 0.3,-0.4 0.5,-0.7 0.2,-0.3 0.4,-0.5 0.5,-0.8 0.3,-1.2 0.8,-2 1.3,-2.6 0.5,-0.6 1.1,-0.9 1.8,-1 0.6,-0.1 1.1,0 1.5,0.1 0.4,0.1 0.6,0.3 0.8,0.6 0.1,0.2 0.2,0.4 0.2,0.8 0.1,0.4 0.1,0.9 0.2,1.6 0,0.3 0.1,0.6 0.3,1.1 0.1,0.5 0.2,0.8 0.3,1.1 0.1,0.9 0.3,1.5 0.6,1.9 0.3,0.4 0.8,0.6 1.5,0.5 0.2,0 0.4,-0.1 0.7,-0.2 0.3,-0.1 0.5,-0.2 0.8,-0.3 l 1.7,3.1 c -1.3,1 -2.4,1.7 -3.3,2.2 -0.9,0.5 -1.5,0.8 -2,0.8 -1.2,0.1 -2.2,-0.1 -3,-0.7 -0.8,-0.5 -1.4,-1.4 -1.9,-2.6 -0.1,-0.3 -0.2,-0.5 -0.4,-0.8 -0.2,-0.3 -0.4,-0.5 -0.7,-0.8 -0.2,0.3 -0.4,0.6 -0.6,0.9 -0.2,0.4 -0.5,0.7 -0.8,1.1 -0.6,0.8 -1.1,1.6 -1.7,2.4 -0.6,0.8 -1.1,1.6 -1.7,2.4 -0.7,1 -1.5,1.8 -2.3,2.3 -0.8,0.5 -1.5,0.8 -2.3,0.9 -1.1,0.1 -2,-0.2 -2.7,-0.7 -0.7,-0.6 -1.2,-1.5 -1.5,-2.7 -0.3,-1.2 -0.5,-2.1 -0.7,-2.8 -0.1,-0.7 -0.2,-1.1 -0.1,-1.2 -0.1,-0.7 -0.2,-1.2 -0.3,-1.5 -0.1,-0.3 -0.3,-0.5 -0.4,-0.5 l -0.2,0.1 -1.8,2.2 c -0.1,0.2 -0.2,0.4 -0.3,0.6 -0.1,0.3 -0.3,0.6 -0.6,1 -0.1,-0.3 -0.3,-0.8 -0.6,-1.3 -0.1,-0.3 -0.5,-0.9 -0.9,-1.7 z"
   id="path27"
   inkscape:connector-curvature="0" />
		<path
   d="m 567.6,216.6 c 0.2,-0.5 0.6,-1 1,-1.6 0.4,-0.6 0.9,-1.1 1.5,-1.7 0,-0.5 0.1,-0.9 0.1,-1.4 0,-0.5 0,-0.9 0,-1.4 0,-0.3 0.1,-0.7 0.2,-1.2 0.1,-0.5 0.2,-1 0.4,-1.5 0.2,-0.5 0.4,-1.2 0.7,-2 0.3,-0.8 0.7,-1.7 1.2,-2.7 0.4,-0.6 0.9,-1.2 1.4,-1.9 0.5,-0.7 1,-1.4 1.4,-2.1 0.2,-0.2 0.5,-0.5 0.8,-0.7 0.3,-0.2 0.6,-0.5 0.9,-0.7 0.3,-0.1 0.6,-0.2 0.9,-0.3 0.3,-0.1 0.7,-0.2 1.1,-0.2 0.6,-0.1 1.1,0 1.4,0.1 0.4,0.1 0.7,0.3 0.9,0.5 0.2,0.2 0.4,0.4 0.5,0.8 0.2,0.4 0.4,0.8 0.6,1.3 0.1,0.5 0.2,1 0.4,1.5 0,-0.1 0,-0.1 -0.1,0.2 -0.1,0.3 -0.1,0.7 -0.3,1.3 l -0.2,1.1 c -0.2,1.1 -0.9,2.5 -1.9,4.1 -1,1.6 -2.4,3.4 -4.2,5.4 -0.2,0.2 -0.3,0.4 -0.4,0.6 -0.1,0.3 -0.1,0.5 -0.1,0.8 0,0.5 0.2,0.9 0.4,1.3 0.2,0.4 0.5,0.6 0.8,0.8 0.2,0.1 0.5,0.2 0.9,0.3 0.4,0.1 0.9,0.2 1.5,0.3 0.9,-0.1 1.7,-0.4 2.4,-0.7 0.7,-0.3 1.4,-0.6 1.9,-1 0.1,-0.1 0.3,-0.2 0.5,-0.3 0.2,-0.1 0.5,-0.3 0.7,-0.6 0.4,0.7 0.7,1.2 1,1.8 0.3,0.5 0.5,1 0.7,1.4 -1.2,1.4 -2.3,2.5 -3.4,3.3 -1,0.8 -2,1.2 -2.9,1.3 -0.4,0.3 -0.8,0.5 -1.2,0.6 -0.5,0.1 -1,0.2 -1.7,0.3 -0.9,0.1 -1.6,0 -2.3,-0.2 -0.7,-0.2 -1.3,-0.5 -1.8,-1 -0.3,-0.2 -0.5,-0.5 -0.8,-1 -0.3,-0.4 -0.6,-1 -0.9,-1.6 -0.3,-0.5 -0.5,-0.9 -0.7,-1.1 -0.2,-0.2 -0.4,-0.3 -0.7,-0.3 -0.2,0 -0.4,0.1 -0.6,0.3 -0.2,0.2 -0.5,0.5 -0.7,0.9 -0.1,-0.3 -0.3,-0.8 -0.6,-1.3 0.1,-0.5 -0.3,-1.1 -0.7,-1.8 z m 10.2,-12.4 c -0.5,0 -1.1,0.8 -1.9,2.2 -0.7,1.4 -1.1,2.4 -1,3.1 0,0.1 0.1,0.2 0.1,0.3 0.1,0.1 0.2,0.1 0.4,0.1 0.3,0 0.5,-0.2 0.6,-0.5 0.1,-0.3 0.3,-0.5 0.4,-0.8 0.2,-0.3 0.5,-0.5 0.7,-0.8 0.2,-0.3 0.4,-0.6 0.6,-0.9 0.3,-0.4 0.4,-0.7 0.5,-1 0.1,-0.3 0.2,-0.7 0.1,-1 0,-0.2 -0.1,-0.4 -0.2,-0.5 0,-0.1 -0.1,-0.2 -0.3,-0.2 z"
   id="path29"
   inkscape:connector-curvature="0" />
	</g>
	<rect
   x="603.70001"
   y="336.60001"
   class="st0"
   width="15.2"
   height="1"
   id="rect31"
   style="fill:none" />
	<g
   id="g33">
		<path
   class="st1"
   d="m 231.3,358 c 34.2,-24.3 74.6,-38.3 115.6,-47.1 41,-8.8 82.8,-12.7 124.3,-18.5 50.8,-7.1 101.5,-17.2 152.8,-17.9"
   id="path35"
   inkscape:connector-curvature="0"
   style="fill:#e30613" />
		<g
   id="g37">
			<linearGradient
   id="SVGID_1_"
   gradientUnits="userSpaceOnUse"
   x1="230.96561"
   y1="316.29651"
   x2="623.95532"
   y2="316.29651">
				<stop
   offset="0"
   style="stop-color:#FFFFFF"
   id="stop40" />
				<stop
   offset="1"
   style="stop-color:#000000"
   id="stop42" />
			</linearGradient>
			<path
   class="st2"
   d="m 232.5,360.2 c 41.3,-29.1 90.5,-43.1 139.7,-51.6 26.5,-4.6 53.2,-7.6 79.8,-11.1 26.6,-3.4 53.1,-7.7 79.6,-11.7 30.6,-4.5 61.3,-8.3 92.3,-8.8 3.2,-0.1 3.2,-5.1 0,-5 -55.3,0.9 -109.6,12.2 -164.3,19.5 -52.3,6.9 -105.3,11.8 -155.7,28.3 -26.2,8.6 -51.4,20.2 -74,36.1 -2.5,1.8 0,6.1 2.6,4.3 l 0,0 z"
   id="path44"
   style="fill:url(#SVGID_1_)"
   inkscape:connector-curvature="0" />
		</g>
	</g>
	<path
   class="st3"
   d="M 486.9,290.1"
   id="path46"
   inkscape:connector-curvature="0"
   style="fill:none;stroke:#000000;stroke-miterlimit:10" />
	<path
   class="st3"
   d="M 336.2,313.3"
   id="path48"
   inkscape:connector-curvature="0"
   style="fill:none;stroke:#000000;stroke-miterlimit:10" />
	<g
   id="g50">
		<g
   id="g52">
			<g
   id="g54">
				<g
   id="g56">
					<g
   id="g58">
						<path
   class="st4"
   d="m 636.9,245.8 c 0.7,0.1 0.5,-0.7 0.6,-0.9 -1.1,0.1 -0.6,1.1 -0.6,0.9 z"
   id="path60"
   inkscape:connector-curvature="0"
   style="fill:#312783" />
						<polygon
   class="st4"
   points="625.7,246.7 623.9,247.5 625.4,247.1 "
   id="polygon62"
   style="fill:#312783" />
						<path
   class="st4"
   d="m 614.8,246.6 c 1,1.5 3.9,-0.1 5.7,0.5 l 0.3,0.3 0.9,-1.1 c -2.3,0.1 -5.3,0.8 -6.9,0.3 z"
   id="path64"
   inkscape:connector-curvature="0"
   style="fill:#312783" />
						<path
   class="st4"
   d="m 609.2,243.4 c 0.3,0.6 -1.2,0.4 1.3,0.2 -0.1,-0.1 -0.2,-0.1 -0.2,-0.1 -0.2,-0.1 -0.5,-0.1 -1.1,-0.1 z"
   id="path66"
   inkscape:connector-curvature="0"
   style="fill:#312783" />
						<path
   class="st4"
   d="m 610.3,243.4 c 1.1,0 -0.7,-0.4 0,0 l 0,0 z"
   id="path68"
   inkscape:connector-curvature="0"
   style="fill:#312783" />
						<path
   class="st4"
   d="m 605.1,243.6 1.5,-0.5 c -0.3,-0.3 -1.6,-0.4 -1.1,-0.7 -1.6,0.4 -1.2,0.7 -0.4,1.2 z"
   id="path70"
   inkscape:connector-curvature="0"
   style="fill:#312783" />
						<path
   class="st4"
   d="m 603.7,244.7 0.8,-0.2 c -0.2,-0.2 -0.4,-0.2 -0.8,0.2 z"
   id="path72"
   inkscape:connector-curvature="0"
   style="fill:#312783" />
						<path
   class="st4"
   d="m 606.1,244 -1.6,0.4 c 0.2,0.2 0.2,0.7 0.7,-0.2 -0.1,0.5 0.2,0.1 0.9,-0.2 z"
   id="path74"
   inkscape:connector-curvature="0"
   style="fill:#312783" />
						<path
   class="st4"
   d="m 607,244.3 c 0.8,0.3 1.9,0.6 0.4,1 2.8,-0.1 2.5,-1.2 -0.4,-1 z"
   id="path76"
   inkscape:connector-curvature="0"
   style="fill:#312783" />
						<path
   class="st4"
   d="m 614.2,248.1 1.1,0.5 1,-0.4 c -0.5,0.1 -2.1,-0.6 -2.1,-0.1 z"
   id="path78"
   inkscape:connector-curvature="0"
   style="fill:#312783" />
						<path
   class="st4"
   d="m 595.9,242.8 c -0.1,0.3 0.5,0.8 0.6,1.2 l 1.1,-0.3 c -0.6,-0.2 -1.6,-0.4 -1.7,-0.9 z"
   id="path80"
   inkscape:connector-curvature="0"
   style="fill:#312783" />
						<path
   class="st4"
   d="m 596.5,244 -1.6,0.5 c 1.4,0.1 1.7,-0.1 1.6,-0.5 z"
   id="path82"
   inkscape:connector-curvature="0"
   style="fill:#312783" />
						<polygon
   class="st4"
   points="606.1,245.2 602.9,246.3 603.4,246.3 "
   id="polygon84"
   style="fill:#312783" />
						<polygon
   class="st4"
   points="590.5,242.1 588.9,243.2 589.6,242.8 "
   id="polygon86"
   style="fill:#312783" />
						<path
   class="st4"
   d="m 585.5,243 c 0.7,-0.6 -1,-1 -0.2,-1.3 -1.1,0.1 -2.1,0.6 -2.9,1.1 0.8,-0.3 1.8,-0.3 3.1,0.2 z"
   id="path88"
   inkscape:connector-curvature="0"
   style="fill:#312783" />
						<path
   class="st4"
   d="m 580.8,243.5 c 0.5,-0.2 0.9,-0.4 1.4,-0.7 -0.4,0.1 -0.9,0.3 -1.4,0.7 z"
   id="path90"
   inkscape:connector-curvature="0"
   style="fill:#312783" />
						<path
   class="st4"
   d="m 592.1,244.4 c -0.1,-0.2 -0.4,-0.7 -1.3,-0.9 l 0.7,0.8 c 0.1,0.1 0.3,0.1 0.6,0.1 z"
   id="path92"
   inkscape:connector-curvature="0"
   style="fill:#312783" />
						<path
   class="st4"
   d="m 591.5,244.4 0,0 c -0.7,0 -1.2,-0.1 -1.4,-0.1 0.1,0.1 0.5,0.1 1.4,0.1 z"
   id="path94"
   inkscape:connector-curvature="0"
   style="fill:#312783" />
						<path
   class="st4"
   d="m 592.2,244.4 c -0.1,0 -0.1,0 -0.2,0 0.1,0.1 0.2,0.1 0.2,0 z"
   id="path96"
   inkscape:connector-curvature="0"
   style="fill:#312783" />
						<path
   class="st4"
   d="m 599.1,245.4 c -1,0.5 -3,1 -1,1.7 0.7,-0.5 -0.4,-1 1,-1.7 z"
   id="path98"
   inkscape:connector-curvature="0"
   style="fill:#312783" />
						<path
   class="st4"
   d="m 593,245.5 1.7,0.2 c 0,-0.2 -0.3,-0.6 0.1,-0.8 l -1.8,0.6 z"
   id="path100"
   inkscape:connector-curvature="0"
   style="fill:#312783" />
						<polygon
   class="st4"
   points="593,245.5 592.4,245.4 592.2,245.7 "
   id="polygon102"
   style="fill:#312783" />
						<path
   class="st4"
   d="m 583.8,244.2 c -0.7,0.4 -1.6,0.4 -2.5,0.5 1,0.1 2,0.2 3,0.2 0.2,-0.3 0.6,-0.8 -0.5,-0.7 z"
   id="path104"
   inkscape:connector-curvature="0"
   style="fill:#312783" />
						<path
   class="st4"
   d="m 587.5,244.4 c -0.1,0 -0.1,0 -0.2,0.1 0.2,0 0.3,0 0.2,-0.1 z"
   id="path106"
   inkscape:connector-curvature="0"
   style="fill:#312783" />
						<path
   class="st4"
   d="m 572.2,245 c 0.1,0.1 0.1,0.1 0.2,0.1 0,-0.1 0,-0.1 0,-0.1 l -0.2,0 z"
   id="path108"
   inkscape:connector-curvature="0"
   style="fill:#312783" />
						<path
   class="st4"
   d="m 584.5,245.1 c 0.7,0.2 1.2,-0.1 1.6,-0.3 -0.6,0.1 -1.1,0.2 -1.8,0.2 0,0 0,0.1 0.2,0.1 z"
   id="path110"
   inkscape:connector-curvature="0"
   style="fill:#312783" />
						<path
   class="st4"
   d="m 578.3,243.9 c 0.4,0.2 0.8,0.3 1.3,0.4 -0.4,-0.2 -1.2,-0.6 -1.3,-0.4 z"
   id="path112"
   inkscape:connector-curvature="0"
   style="fill:#312783" />
						<path
   class="st4"
   d="m 587.1,244.2 c 0,0 0.1,0 0.1,0 -0.2,-0.2 -0.2,-0.1 -0.1,0 z"
   id="path114"
   inkscape:connector-curvature="0"
   style="fill:#312783" />
						<path
   class="st4"
   d="m 587.1,244.2 c -0.4,0.1 -0.7,0.3 -1,0.5 0.5,-0.1 0.9,-0.2 1.2,-0.3 0,0 -0.1,-0.1 -0.2,-0.2 z"
   id="path116"
   inkscape:connector-curvature="0"
   style="fill:#312783" />
						<path
   class="st4"
   d="m 569.7,250.6 c 0.1,-0.8 2,-1.6 3.7,-0.8 1.6,-0.7 0.5,-3.2 -1.1,-4.6 0,0.3 0,0.7 -1.7,1.2 0.6,0.4 3.8,0.9 2.4,1.6 -2.2,0.5 -1.9,-0.2 -3,-0.6 1,0.9 -2.8,1.6 -2.2,3 l 1.9,-0.6 c 0.2,0.2 -0.5,0.6 0,0.8 z"
   id="path118"
   inkscape:connector-curvature="0"
   style="fill:#312783" />
						<path
   class="st4"
   d="m 575.7,245.1 0.7,-0.1 c -0.8,-0.1 -1.4,-0.4 -2.5,-1 -1.2,0.4 -1.4,0.7 -1.5,1 l 3.5,0 -0.2,0.1 z"
   id="path120"
   inkscape:connector-curvature="0"
   style="fill:#312783" />
						<path
   class="st4"
   d="m 579.5,244.9 c -0.5,0.9 -2.2,1.3 -1.1,2.2 2.1,-0.1 1.4,-0.8 2.7,-1.2 -3.4,0.3 0.9,-0.5 -1.6,-1 0.7,-0.1 1.3,-0.1 1.8,-0.2 -0.6,-0.1 -1.2,-0.2 -1.7,-0.3 0,0 0.1,0 0.1,0.1 l 0,0 0,0 c 0.1,0.1 0.2,0.2 0,0.1 0,0 -0.1,0 -0.1,0 0.1,0.1 0,0.2 -0.1,0.3 -1,-0.2 -0.2,-0.2 0.1,-0.3 0,0 0,-0.1 0,-0.1 l 0,0 -3.3,0.6 c 0.8,0 1.7,-0.1 3.2,-0.2 z"
   id="path122"
   inkscape:connector-curvature="0"
   style="fill:#312783" />
						<path
   class="st4"
   d="m 596.3,249 c -0.1,-0.1 -0.1,-0.1 -0.1,-0.2 -0.2,0.1 -0.3,0.2 0.1,0.2 z"
   id="path124"
   inkscape:connector-curvature="0"
   style="fill:#312783" />
						<path
   class="st4"
   d="m 595,248.5 c 0.2,-0.1 0.4,-0.5 1.2,-0.4 0.7,0.3 0,0.4 0,0.7 0.5,-0.2 1.7,-0.6 0.2,-1 l -0.2,0.1 c -1.3,-0.3 -3.1,-1.4 -2.8,-1.5 0.3,0.8 0.7,1.3 1.6,2.1 z"
   id="path126"
   inkscape:connector-curvature="0"
   style="fill:#312783" />
						<path
   class="st4"
   d="m 587.2,246.9 -2.8,0.5 1.4,0.7 -0.1,-0.4 c 1.6,0.1 1.3,-0.5 1.5,-0.8 z"
   id="path128"
   inkscape:connector-curvature="0"
   style="fill:#312783" />
						<polygon
   class="st4"
   points="572.2,243.7 570.7,245 571.9,244.6 "
   id="polygon130"
   style="fill:#312783" />
						<polygon
   class="st4"
   points="568.4,244.1 567.4,244.6 568.3,244.9 "
   id="polygon132"
   style="fill:#312783" />
						<path
   class="st4"
   d="m 371.5,292.8 -0.7,0.4 c 0.3,-0.1 0.5,-0.3 0.7,-0.4 z"
   id="path134"
   inkscape:connector-curvature="0"
   style="fill:#312783" />
						<path
   class="st4"
   d="m 376.5,291.8 0.1,-0.4 c -0.3,0.2 -0.3,0.4 -0.1,0.4 z"
   id="path136"
   inkscape:connector-curvature="0"
   style="fill:#312783" />
						<path
   class="st4"
   d="m 480,255.3 c -1.3,-0.5 -2.8,-1.4 -2.5,-0.6 l 0.5,0.8 c 0.8,-0.2 1.4,-0.3 2,-0.2 z"
   id="path138"
   inkscape:connector-curvature="0"
   style="fill:#312783" />
						<path
   class="st4"
   d="m 422,274 c 0.1,0.1 0.3,0.1 0.4,0.2 0.2,-0.4 0.4,-0.7 0.5,-1 -0.2,0.2 -0.5,0.5 -0.9,0.8 z"
   id="path140"
   inkscape:connector-curvature="0"
   style="fill:#312783" />
						<path
   class="st4"
   d="m 422.2,277.7 -1.6,-0.1 c 0.3,0.1 0.9,0.1 1.6,0.1 z"
   id="path142"
   inkscape:connector-curvature="0"
   style="fill:#312783" />
						<path
   class="st4"
   d="m 340.9,303 -0.7,1.1 c 1.5,-0.4 0.7,-0.7 0.7,-1.1 z"
   id="path144"
   inkscape:connector-curvature="0"
   style="fill:#312783" />
						<path
   class="st4"
   d="m 531.3,248.2 c -1.1,-0.2 -1.9,-0.3 -2.6,-0.2 1.3,0.3 2.3,1 2.6,0.2 z"
   id="path146"
   inkscape:connector-curvature="0"
   style="fill:#312783" />
						<path
   class="st4"
   d="m 371.3,283.3 c -0.6,0.3 -0.8,0.5 -0.7,0.7 0.5,-0.3 0.8,-0.5 0.7,-0.7 z"
   id="path148"
   inkscape:connector-curvature="0"
   style="fill:#312783" />
						<path
   class="st4"
   d="m 525.7,248.4 c 0.2,0.1 0.4,0.1 0.6,0.1 0.7,-0.2 1.5,-0.4 2.4,-0.5 -1,-0.3 -2.1,-0.4 -3,0.4 z"
   id="path150"
   inkscape:connector-curvature="0"
   style="fill:#312783" />
						<path
   class="st4"
   d="m 223.8,316.7 c -0.1,-0.1 -0.2,-0.1 -0.3,-0.1 0,0 0.1,0 0.3,0.1 z"
   id="path152"
   inkscape:connector-curvature="0"
   style="fill:#312783" />
						<path
   class="st4"
   d="m 194.4,297.5 c 0.3,0.1 0.8,0.3 1.2,0.6 -0.2,-0.2 -0.6,-0.3 -1.2,-0.6 z"
   id="path154"
   inkscape:connector-curvature="0"
   style="fill:#312783" />
						<path
   class="st4"
   d="m 553.7,245.4 c 0.7,-0.1 0.1,-0.1 0,0 l 0,0 z"
   id="path156"
   inkscape:connector-curvature="0"
   style="fill:#312783" />
						<path
   class="st4"
   d="m 557.6,248.5 c -0.2,0.1 -0.3,0.2 -0.3,0.4 0.1,-0.1 0.2,-0.3 0.3,-0.4 z"
   id="path158"
   inkscape:connector-curvature="0"
   style="fill:#312783" />
						<path
   class="st4"
   d="m 518.8,254.7 c 0,0 0,0 0,0 0.2,0.2 0.2,0.2 0,0 z"
   id="path160"
   inkscape:connector-curvature="0"
   style="fill:#312783" />
						<path
   class="st4"
   d="m 554.9,245.7 c -0.3,-0.1 -0.6,-0.2 -1,-0.2 0.1,0.1 0.4,0.1 1,0.2 z"
   id="path162"
   inkscape:connector-curvature="0"
   style="fill:#312783" />
						<path
   class="st4"
   d="m 554.7,245.3 c 0.3,0 0.5,0 0.7,0 0,-0.1 -0.1,-0.2 -0.7,0 z"
   id="path164"
   inkscape:connector-curvature="0"
   style="fill:#312783" />
						<path
   class="st4"
   d="m 552.6,245.5 c 0.4,0 0.9,0 1.2,0 -0.2,0 -0.2,-0.1 -0.2,-0.1 -0.1,0 -0.5,0 -1,0.1 z"
   id="path166"
   inkscape:connector-curvature="0"
   style="fill:#312783" />
						<path
   class="st4"
   d="m 287.2,313.2 c -0.1,0 -0.1,0 -0.2,-0.1 -0.6,0.5 -0.3,0.4 0.2,0.1 z"
   id="path168"
   inkscape:connector-curvature="0"
   style="fill:#312783" />
						<path
   class="st4"
   d="m 462.2,268 c 0.1,0 0.1,-0.1 0,0 0.1,-0.1 0,-0.1 0,0 l 0,0 z"
   id="path170"
   inkscape:connector-curvature="0"
   style="fill:#312783" />
						<path
   class="st4"
   d="m 459.7,269.2 c 0.9,-1.3 1.6,-1.3 2.5,-1.3 l -1.4,-2.3 -1.1,3.6 z"
   id="path172"
   inkscape:connector-curvature="0"
   style="fill:#312783" />
						<path
   class="st4"
   d="m 358,297.1 2.1,0.2 c -1.8,1.9 -3.6,2 -1.5,2.5 -0.5,-2.7 7.1,-2.4 6.5,-5.1 l 1.4,0.2 c -0.4,0.1 -0.4,0.2 -0.7,0.3 2.7,0.5 1.2,-2.4 4.4,-3 1.1,-0.1 2,0 1.4,0.6 0,0 0.6,-0.4 1,-0.7 0.2,-0.1 0.4,-0.3 0.6,-0.4 0.2,-0.1 0.3,-0.2 0.3,-0.2 0.6,-0.1 0.5,0.4 0,0.5 0,0 0.7,-0.2 1.5,-0.4 0.9,-0.2 1.8,-0.4 1.8,-0.4 l 0,0.1 c 0.5,-0.5 1.6,-1.3 2.2,-1.7 1.1,0.2 -0.5,0.4 -0.1,0.7 0,0 0.6,-0.3 1.1,-0.5 0.7,-0.3 1.3,-0.7 1.3,-0.7 0.7,0.2 0.5,0.6 -0.1,1 -0.3,0.2 -0.8,0.4 -1.3,0.6 -0.4,0.1 -0.8,0.2 -1.2,0.3 0.4,0.4 0.7,0.6 1,0.7 0.3,0.1 0.5,0.1 0.9,0.1 0.6,-0.1 1.2,-0.6 2,-1 0.3,-0.3 0.7,-0.5 1.2,-0.9 0.2,-0.1 0.4,-0.3 0.6,-0.4 0.2,-0.1 0.5,-0.2 0.5,-0.2 0.2,0 0.4,-0.1 0.7,0 0,0 -0.2,0.2 -0.3,0.4 -0.1,0.1 0,0.1 -0.3,0.3 -0.2,0.1 -0.4,0.3 -0.4,0.3 0.3,0 0.5,0 0.8,0 0.1,0 0.1,0 0.2,0 l 0.1,0 0.1,0.1 c 0.2,0.1 0.3,0.1 0.4,0.2 0.1,0 0.1,0 0.2,0.1 0,0 0,0 0.1,0 l 0,0 c 0,0 0,0.1 0,0 l -0.1,-0.3 c -0.5,-1.4 -1.1,-3.4 -1.1,-4.9 l 2.2,5.2 c 0.2,0 0.4,0.1 0.7,0.2 -0.1,-0.1 -0.5,-0.3 -0.8,-0.6 l -2.1,-4.9 c 0,1.1 0.3,2.6 0.7,3.8 0,0.1 0.1,0.3 0.1,0.4 l 0.1,0.2 0,0 c 0,-0.1 0,-0.1 -0.1,-0.1 -0.1,-0.1 -0.1,-0.2 -0.2,-0.3 -0.3,-0.3 -0.4,-0.7 -0.2,-1 0,0 0,0 0.1,0 0,0 0,0 0,0 l 0,0 0,0 0,-0.1 c 0,-0.2 -0.1,-0.4 -0.1,-0.6 -0.2,-0.8 -0.3,-1.6 -0.3,-2.3 l 1.4,2.8 c 0.3,-0.1 0.6,-0.3 1.1,-0.7 0.2,0.9 1,0.5 2.5,0.3 l 0.1,1.3 c 1.5,-0.6 1.3,-1.2 2.2,-1.9 2,-0.2 2.7,0.6 3.5,1.3 1,-0.2 1.3,-0.4 1.3,-0.5 0,-0.1 -0.4,-0.2 -0.8,-0.4 -0.4,-0.1 -0.7,-0.3 -0.6,-0.5 0,-0.1 0.1,-0.2 0.4,-0.4 0.1,-0.1 0.3,-0.2 0.4,-0.2 0.2,-0.1 0.3,-0.1 0.5,-0.2 2.4,-0.3 3.8,-1.3 6.3,-2.9 1.7,-0.1 0,0.8 0.6,1 l 1.1,-1.4 c 0.4,-0.1 0.3,0.3 0.3,0.4 1.1,-0.7 -0.3,-1.3 1.5,-2.2 0.1,-1.5 4.4,0.8 6.3,-1.4 0.7,0.2 -0.1,0.8 0.3,1.3 2.9,-1.9 2.5,-1.5 4.7,-3.7 l 2.5,0.2 c -1.9,-0.5 -0.1,-2.1 1.5,-3.6 -0.7,-0.3 -1.3,-0.5 -1.7,-0.6 l 2.8,-1.5 c 0.4,0.1 0.2,0.6 -0.1,1.3 0.2,-0.2 0.3,-0.3 0.5,-0.4 1.2,0.2 0.8,1 0.3,1.9 -0.4,-0.1 -0.9,-0.3 -1.3,-0.5 -0.5,1 -1,2 -0.6,2.7 0.2,-0.2 0.5,-0.4 0.9,-0.6 -0.1,0.3 -0.2,0.5 -0.1,0.6 0.1,0.1 0.4,-0.3 0.8,-0.7 l 1.1,1.2 0,-0.6 4.1,-0.2 c 2.4,-2.1 4.2,-4.8 8.5,-6.5 -0.8,1.3 0.2,1.7 0.4,2.9 -1.5,-1 -3.3,1.4 -5.6,1.8 1.2,-0.2 1.1,0.5 0.9,0.7 l 3.7,-2.2 c 0.2,1 1.1,0.5 2.2,0.6 -1.3,-1.7 2.7,-2.1 4.2,-3.1 0.3,0.6 0,1.4 -2,1.7 2.6,0.9 2.3,-3 4.8,-2.3 -0.5,0.1 -0.8,0.1 -0.9,0.5 1,-0.9 3.9,-1.1 3.4,-0.4 l -0.5,0.1 c 3.3,-0.5 10,-2.3 10.1,-4 0.1,0.2 0,2.1 -0.1,2.5 L 463,262 c -0.2,1.5 2.5,4.5 -0.1,5.9 0.8,0 1.8,0.1 3.4,-0.8 -0.6,-0.1 -1.8,-1.8 -1.1,-2.1 2.3,1.2 1.6,0.6 4.3,1.4 -0.9,-0.1 -0.4,-2.6 0.9,-2.8 -0.1,0.4 0.5,2.2 0.1,2.5 l 2.7,-2.8 c -0.7,0.5 0.2,1.9 1.1,2.4 -0.4,-0.4 2.7,-0.5 3.5,-0.9 l -1.4,-0.3 c 3.6,-0.4 3,-3.8 6.6,-4.3 -0.4,0.5 -0.6,3 1.3,3 0.6,-1.3 2.7,-6.1 5.8,-7.5 l 0.7,0.5 2.3,-1.1 c -1.3,2 -4.9,6.3 -7,8 1.4,0.3 0.5,0.7 2.5,0.3 0.8,0.5 -0.9,1.1 -1.5,1.2 l 4.7,-0.4 c -0.4,-1.3 3.4,-1.9 3,-3 l -4.9,2.2 c -0.4,-1.3 2.3,-4.3 5.7,-4.5 0.9,0.4 -0.3,2.5 -0.1,2.9 0.4,-0.5 3,-1.4 3.4,-1.1 l -1.3,0.9 c 1.9,0.2 2.8,-2.2 5.2,-1.3 0.8,0 2.5,1.4 2.6,0.6 -1.5,-1.3 -2.4,-6 -1.7,-7.3 0.3,0.1 4.3,0.9 5.3,1.5 1.4,1 -1.5,3.1 -0.3,4 0,-0.4 0.6,-0.9 0.9,-1.1 0.9,0.2 -0.2,1.2 1.6,0.8 0.1,-1.4 3.6,-0.3 0.7,-1.2 1.7,-0.6 1.9,0 3.9,-0.3 -0.8,-0.8 1.4,-3.2 3.1,-3.8 -0.1,0.4 0.4,0.8 0.6,0.9 3.6,-0.4 5.5,0 8.8,-0.4 0.3,0.3 2,0.5 1.4,1.2 0.4,-0.3 0.8,-0.8 1.8,-1 2.1,0.9 -2.2,0.5 -0.6,1.7 0,-0.8 2.5,-1.4 3.9,-2 -0.6,-1.2 -3.4,0.1 -4.8,0.8 -0.2,-1.7 2.1,-3.8 5.5,-4.9 2.7,-0.7 1.3,1 1.8,0.7 5.2,-0.3 4.1,-3.4 8.6,-2.6 1.8,0.9 0.3,2.1 0.7,2.9 -2.2,0.6 -3.5,-0.4 -5,-0.2 l 1.9,0.3 c -0.7,0.4 -2.2,0.8 -3,0.6 0.8,0.4 3,0.2 5.5,0 2.5,-0.2 5.3,-0.4 7.4,-0.1 0.7,-0.4 1.9,-0.9 1.3,-1.3 l -1.3,0.3 c -1.2,-0.8 2.3,-1.4 0.7,-1.7 1.7,-0.7 3.5,-1.8 6,-1.5 l 0.5,1.2 c -0.1,-0.4 -1.6,-0.6 -2.3,-0.2 1,-0.6 3.8,1.4 4.8,-0.3 l -1.7,-0.7 c 1.7,-0.7 3.7,-2.1 5.9,-1.9 -1,-1.2 -0.5,0.2 -2.1,-1.2 1.4,1.7 -5.5,0.2 -3.3,2 -1.7,-1.5 -2.7,-0.5 -4.9,-1.8 0.1,0.4 0.8,0.7 -1,0.6 -0.1,0.1 -0.3,0.3 -0.4,0.4 -0.1,0 -0.1,0 -0.1,0 0,0 0.1,0 0.1,0 -0.1,0.1 -0.1,0.1 0,0 0.4,0.1 0.8,0.3 1,0.6 -0.8,1 -3.7,1.2 -4.6,1.7 -1.1,-0.1 0.4,-0.5 -0.2,-0.9 l -1.4,0.8 c -0.2,-0.9 -3,-1.3 -0.5,-2 l -2.3,0.1 c -1.4,-0.4 -3.2,-0.4 -4.3,0.1 -1.1,-0.1 -2.6,1.2 -1.7,0.5 l -3.5,0.9 -0.1,-0.2 c -3.5,0.3 -7,2.2 -11.2,1.2 -1.1,0.4 -2.3,0.8 -4.3,0.8 l -0.5,-0.7 c -1.5,0.5 -4.6,-0.1 -5.1,0.7 -1.9,-1.8 -7.3,0.5 -10,0.4 l 0,1 c -1.8,0.2 -3.5,0.7 -5.7,1.4 l 0.3,0.9 c -1.8,1 -5.1,0.1 -8.1,0.7 0.2,-0.4 0.9,-0.4 1.5,-0.3 -4,-1.5 -7.5,2.7 -11,1.8 -0.8,0.5 -1.4,0.5 -2,0.3 0.1,0 0.1,0 0.2,-0.1 -0.1,0 -0.2,0 -0.3,0 -0.4,-0.1 -0.8,-0.2 -1.2,-0.3 0.4,0.2 0.7,0.3 1,0.3 -0.6,0.1 -1.6,0.4 -2.5,0.8 l -0.6,-0.9 c -0.1,0 -0.1,0 -0.2,0.1 -1,-0.2 -0.7,0.6 0,1.2 -0.4,0.2 -0.8,0.5 -1.1,0.8 -1,-1.4 -2.4,1 -3.7,-0.4 -0.5,0.9 -4.6,1.5 -4.8,3.3 -0.1,-0.2 -0.4,-0.3 0.1,-0.4 -1.1,0 -2.2,0 -3,0.7 l -0.7,-1.1 -1.9,2.1 c -1.5,-0.4 -2.2,-0.7 -1,-2 -3,2.1 -2.6,1.1 -5.1,3.1 l 0,-0.8 c -1,0.3 -2.4,1.6 -3.1,1.1 -1.3,-0.5 -4.1,0.1 -7.3,0.8 -3.2,0.8 -6.9,1.6 -9.9,1.7 1.7,2 -2.9,-0.3 -2.7,1.5 -0.5,-0.4 -1.4,-0.5 -0.5,-1.2 -2.8,1.3 -4.6,0.3 -6.3,2.3 -0.5,-0.4 0.4,-0.9 0,-1.2 -0.2,0.2 -0.8,0.7 -1.2,0.5 -0.4,-0.2 0.3,-0.6 0.7,-0.9 -3,0.9 -2.8,2.6 -2.6,4.2 -1.7,-0.3 -2.4,0 -3.2,1.3 -0.7,-0.4 -1.7,-0.6 0.1,-1.3 -1.1,0.2 -6.6,1.1 -6.3,2.3 -0.4,-0.2 -1.5,0.3 -1.7,0.6 -2.3,0.6 -2.6,0.6 -4.8,1.4 l 0.7,0 c -0.4,1.8 -1.8,0.9 -3.6,1.6 l 0,-0.2 c -4.5,0.2 -1.7,1.1 -6.2,1.2 l 0.5,0.8 c 0.1,1 -0.9,1 -2.2,1 -0.7,0 -1.4,-0.1 -2.1,0 -0.2,0 -0.4,0 -0.5,0.1 -0.1,0 -0.3,0 -0.4,0.1 -0.3,0.1 -0.5,0.2 -0.8,0.3 0,0 0.2,0.1 0.5,0.2 0.2,0.1 0.5,0.2 0.5,0.2 -0.5,0.5 -1.5,0 -2.5,-0.7 -1,-0.7 -2.1,-1.5 -2.8,-1.5 -0.3,-0.1 0.4,-0.4 0.8,-0.5 -1.9,-0.3 -2.1,0 -2,0.5 0.1,0.5 0.3,1.1 -1.1,1.6 -0.3,-0.3 -0.3,-0.7 -0.3,-1.1 -0.1,-0.3 -0.3,-0.6 -1.5,-0.4 -0.3,-0.1 -0.7,0.1 -1.3,0.4 l 1.7,-0.3 c -1.2,0.1 -1.8,0.4 -2.4,0.6 -0.6,0.3 -1.1,0.6 -1.5,1 -0.8,0.6 -2,1.7 -2,1.8 -0.1,0.2 -0.2,0.2 -0.3,0.2 -0.3,0.1 -0.5,0 -0.8,-0.2 0.2,0.2 0.4,0.5 0.5,0.7 0,0.1 0.1,0.2 0,0.4 0,0.1 -0.1,0.2 -0.4,0.4 -0.8,0.3 -2.1,-0.1 -3.4,-0.2 -1.3,-0.1 -2.8,0 -3.6,1.1 -0.3,-0.1 -0.5,-0.2 -0.5,-0.3 -0.2,0.1 -0.4,0.2 -0.7,0.4 -0.2,0.1 -0.4,0.2 -0.7,0.4 -0.5,0.2 -1,0.5 -1.5,0.8 -1,0.5 -1.9,1.1 -2.2,1.7 -2.2,-2.8 -8.2,4.2 -9.1,1.2 l -4.3,1.5 0,-0.3 c -2.8,0.6 -3.6,1.6 -4.3,2.6 -0.7,0 -0.3,-0.4 -0.3,-0.6 -4.2,0.6 -4.5,0.9 -7.5,3.3 l -0.6,-0.8 c -0.8,0.8 -6.2,0.2 -9.8,2.5 0,-0.1 0,-0.3 0.3,-0.6 -2.1,1.2 -4.9,1.3 -7.3,1.6 -2.4,0.3 -4.4,0.7 -4.7,2.7 l -2.7,1.6 c 3.9,-0.7 -0.2,1.7 1.5,1.8 -1.5,0.6 -4.2,0 -2.4,-0.7 l 0.3,0.1 c 0.2,-2 -4.9,0.6 -5.1,-0.7 -7.5,2 -15,2.6 -22.1,3.8 l 1.1,1.3 c 0,0 -0.6,0.1 -1.2,0.2 -0.6,0.1 -1.2,0.2 -1.2,0.2 -0.7,-0.2 -1.1,-1 0.7,-1.2 -1.1,-0.7 -2.8,1.2 -2.8,1.5 -3.5,0 1.1,-1.9 0,-1.8 l -1.4,0.4 0.4,0.1 c -1.1,0.8 -1.1,1.4 -3.2,1.7 -1.4,-0.1 -0.8,-0.8 -1.4,-0.8 0,-0.1 -0.2,-0.1 -0.8,0.1 0,0 -0.8,0.1 -1.6,0.2 -0.8,0.1 -1.6,0.1 -1.6,0.1 l 1.4,1 c -1.3,0.7 -3,0.3 -1.3,1.4 -2.4,-1.7 -11.8,0.6 -13.2,-0.1 -1.9,1 -3.8,1.1 -6.2,1 0.6,0.2 1,1.5 -1.1,1.4 0.3,-1.4 -0.6,-1.6 -1.8,-1.8 -1.2,-0.2 -2.8,-0.3 -3.6,-1.3 0.7,0.6 -0.7,0.7 -2.1,0.8 -1.4,0.1 -2.6,0.2 -1.5,1.2 -1.7,-0.3 -0.1,-1 -1.3,-1.7 -1,0.2 -2.1,0.3 -3.2,0.2 -1.1,-0.1 -2.2,-0.3 -3.4,-0.5 -2.3,-0.4 -4.7,-1.1 -7.2,-1.3 -0.1,0.3 0.6,1 -0.5,1.4 0,0 -0.6,-0.5 -1.2,-1.1 -0.6,-0.5 -1.2,-1.1 -1.2,-1.1 -1,0 -1.3,1.8 -2.8,0.3 0.2,0.3 0.5,0.8 -0.2,0.8 -4.6,-1.8 -9.6,-2.6 -14.4,-4.1 -4.8,-1.4 -9.5,-3.4 -13.3,-7 0.9,1.2 0.1,0.9 -0.9,0.4 0.5,0.5 -0.4,0.8 -0.5,1.3 l -3.1,-3.1 c -1.3,0.9 -3.9,-2.2 -4.9,-1.3 l 1.3,0.5 c -2.3,0.4 0.5,4.1 -0.7,5.7 1.3,-0.2 2.2,0.9 3.3,2.1 1.1,1.2 2.4,2.4 4.5,2 0.5,0.7 -0.8,0.3 -0.7,0.9 1.1,-0.4 2.1,-0.1 3.8,1 l -0.3,0.1 c 2.5,1 4.3,1.8 6.1,2.8 1.8,0.9 3.7,1.9 6.6,3.1 l -0.2,-1 c 1.2,0.5 1.4,0.8 1.9,1.2 1.8,-1 -3.5,-1.1 -1.8,-2.2 0.6,1.2 2.8,1.8 4.9,2.4 2.2,0.6 4.3,1.1 4.6,2.3 2,0.5 -0.4,-1.2 1.6,-0.7 l 0.4,0.7 0.6,-0.7 c 1.3,0.4 1.8,1.2 1.8,1.7 -0.3,-0.1 -0.9,0 -1.3,0 1.6,1 4.9,0.6 5.4,0.9 0,0 -0.5,-0.2 -0.9,-0.3 -0.5,-0.2 -0.9,-0.3 -0.9,-0.3 5.5,0.3 12.2,1.7 17.6,0.6 l -0.4,-0.5 c 2,-0.3 2.8,-0.2 3.7,0 0.9,0.2 1.8,0.4 4,0.2 l -0.2,0.1 c 0.9,-0.5 2.1,-0.7 3.3,-0.7 -1.1,0.6 2.1,1 0.7,1.6 2.2,-0.5 2.7,-0.7 3,-1 0.3,-0.3 0.5,-0.7 1.9,-1.6 l 0.7,0.7 c 0.9,-0.7 1,-1.1 3.2,-1.4 -1.7,0.8 1.5,1 -0.5,2 2.4,0.6 4.1,0 5.4,-0.4 1.4,-0.4 2.4,-0.8 3.6,0.2 1.9,-2.3 -4.1,-0.7 -3,-1.2 -1,-0.6 1.6,-1.7 3,-1.7 1.4,-0.1 2.8,2.3 6.5,1.7 -0.4,0 -0.4,0.2 -0.7,0.2 1.5,0.3 2.6,-1.1 4.4,-0.5 0.7,-1.4 2.2,-0.3 2.2,-1.9 l -3.3,0.9 c 1.8,-0.7 3.3,-2.8 6.5,-2.5 -0.2,0.4 -1,0.9 -1.6,1.3 1,0.3 1.7,-0.6 2.7,-0.3 0,1.6 -4,1.1 -5.8,2.6 1.1,0.5 3.7,-1.8 2.9,0.1 1.1,-2.4 3.7,-0.4 5.8,-2.5 l 0,1 c 0.4,-0.2 1.1,-0.8 1.8,-0.9 l -1.1,1.5 c 1.8,-1.4 4,0.1 5.8,-0.8 -4,0.9 -1.1,-0.9 -3,-1.3 4.6,-2.3 3.4,1.9 8.7,0.2 -0.7,0.3 -2.9,0.1 -1.9,-0.6 1.1,0 2.5,0 3.3,0.3 3.6,-1.1 -0.8,-0.8 0.6,-1.7 1.5,0.8 1.7,-0.9 3.2,-1.6 l 0.2,0.9 c 4.3,-0.4 0.6,-2.2 4.5,-2.4 l -1.2,1.7 1.8,-0.8 -0.1,1.2 c 1.9,-1.3 2.6,-1.3 4.7,-1.5 -0.6,-0.5 -0.2,-1.8 1.6,-2.3 1.4,0.2 -0.4,1.1 2.1,0.2 -0.4,0.7 -0.9,1.6 -2.2,1.1 0,0.3 -0.4,0.7 -0.4,1.1 1.5,0.3 3.4,-0.8 4.3,-1 -0.4,0.1 -0.8,0.1 -1.1,0.1 l 3.3,-2.3 c 0.7,0.2 0.3,0.6 -0.1,1 0.7,-0.3 1.1,-0.9 2.2,-1.3 -0.1,0.8 0.2,1.6 -1.2,2.4 l 3.3,-1.8 c 0.3,0.3 2.1,0.4 1.7,0.8 2.1,-0.1 4.4,-2.8 7.1,-3 0.1,-0.2 0.3,-0.4 0.8,-0.7 2.5,-0.5 4.9,-0.3 7.4,-2.2 l 2,0.9 c 2.1,-1 -2.7,-1 0.9,-2.7 2.5,-1.2 1.3,0.9 2.4,0.9 1.1,-1.1 3,-3.1 5.7,-2.8 -0.9,0.5 -1.6,0.5 -2.3,0.8 z m 27.4,-8.7 c -0.1,0.2 -0.3,1.1 -0.8,0.7 -0.3,-1.2 0.4,-0.9 0.8,-0.7 z m 41.2,-13.7 c -0.3,0.4 -1,0.4 -1.8,0.3 0.5,-0.3 1.1,-0.4 1.8,-0.3 z m 118.7,-27.8 c 0,0 0,0 0,0 -1.3,-0.3 -0.9,-0.1 0,0 z m 2.7,0.1 c 0.2,-0.2 0.2,-0.3 0.1,-0.4 -0.2,0.3 -0.7,0.3 -1.4,0.3 0.2,0.3 0.5,0.4 1.3,0.1 z m -269.8,61 0.5,0.2 c -1.1,0.4 -0.8,0.2 -0.5,-0.2 z"
   id="path174"
   inkscape:connector-curvature="0"
   style="fill:#312783" />
						<path
   class="st4"
   d="m 422.2,277.3 c -0.2,-0.1 -0.3,-0.3 -0.4,-0.4 -0.2,0.1 -0.1,0.3 0.4,0.4 z"
   id="path176"
   inkscape:connector-curvature="0"
   style="fill:#312783" />
						<path
   class="st4"
   d="m 341,302.8 c 0,0 0,0 0,0 -0.1,0.1 -0.1,0.1 -0.1,0.2 l 0.1,-0.2 z"
   id="path178"
   inkscape:connector-curvature="0"
   style="fill:#312783" />
						<path
   class="st4"
   d="m 509.1,259.8 c -0.5,-0.1 -0.9,-0.2 -1.1,-0.4 0.1,0.3 0.3,0.5 1.1,0.4 z"
   id="path180"
   inkscape:connector-curvature="0"
   style="fill:#312783" />
						<path
   class="st4"
   d="m 561.6,244.4 -1.7,0.4 c 0.8,-0.1 1.1,0.1 1.5,0.2 0,-0.2 -0.3,-0.5 0.2,-0.6 z"
   id="path182"
   inkscape:connector-curvature="0"
   style="fill:#312783" />
						<path
   class="st4"
   d="m 576.3,249.7 c 0.2,-0.1 0.5,0 0.7,-0.2 l -0.1,-0.4 c -1,0.1 -1.7,0.5 -0.6,0.6 z"
   id="path184"
   inkscape:connector-curvature="0"
   style="fill:#312783" />
						<path
   class="st4"
   d="m 563.3,247.5 c 0.2,0.8 1.2,0.5 2.4,0.3 -0.1,0 -0.1,0 -0.2,0 0.3,-1.2 -1,-0.7 -2.2,-0.3 z"
   id="path186"
   inkscape:connector-curvature="0"
   style="fill:#312783" />
						<path
   class="st4"
   d="m 566,247.7 c 0.4,-0.1 0.7,-0.1 1.1,-0.1 0,-0.4 -0.5,0 -1.1,0.1 z"
   id="path188"
   inkscape:connector-curvature="0"
   style="fill:#312783" />
						<path
   class="st4"
   d="m 551.2,246.2 c 0.6,0.2 0.3,-1.1 0.6,-0.8 0.5,-1 -3.6,1.6 -0.6,0.8 z"
   id="path190"
   inkscape:connector-curvature="0"
   style="fill:#312783" />
						<polygon
   class="st4"
   points="563.9,249.2 563.3,250 564.4,250.1 "
   id="polygon192"
   style="fill:#312783" />
						<path
   class="st4"
   d="m 555.2,250 1.9,0.2 c 0,-0.2 0.2,-0.3 0.5,-0.4 -1.2,0 -2.4,-0.1 -2.4,0.2 z"
   id="path194"
   inkscape:connector-curvature="0"
   style="fill:#312783" />
						<path
   class="st4"
   d="m 557.6,249.8 c 0.6,0 1.2,-0.1 1.5,-0.3 -0.4,0 -1.1,0.1 -1.5,0.3 z"
   id="path196"
   inkscape:connector-curvature="0"
   style="fill:#312783" />
						<polygon
   class="st4"
   points="561.4,250.4 560,250.4 561.9,250.6 "
   id="polygon198"
   style="fill:#312783" />
						<path
   class="st4"
   d="m 535.4,251.6 -2,0.5 c -0.2,0.4 0.4,0.5 1.1,0.3 0.5,-0.3 1.2,-0.5 0.9,-0.8 z"
   id="path200"
   inkscape:connector-curvature="0"
   style="fill:#312783" />
						<path
   class="st4"
   d="m 541.7,253.7 c -0.6,-0.2 -0.6,-0.4 -1,-0.7 l 0.1,1.2 0.9,-0.5 z"
   id="path202"
   inkscape:connector-curvature="0"
   style="fill:#312783" />
						<path
   class="st4"
   d="m 535.9,254.6 c -0.2,0.4 -2.8,1.3 -0.3,0.9 0.2,-0.3 2.2,-0.8 0.3,-0.9 z"
   id="path204"
   inkscape:connector-curvature="0"
   style="fill:#312783" />
						<polygon
   class="st4"
   points="506.1,256.8 505.8,254.8 505.6,256.9 "
   id="polygon206"
   style="fill:#312783" />
						<path
   class="st4"
   d="m 480,265.9 c 2.4,0.1 0.3,-1.3 2.6,-1.1 0.5,-0.6 -1.8,-0.2 -1.3,-0.7 -1.4,0.7 -2.2,0.6 -1.3,1.8 z"
   id="path208"
   inkscape:connector-curvature="0"
   style="fill:#312783" />
						<path
   class="st4"
   d="m 481.3,264.1 c 0.2,-0.1 0.4,-0.3 0.7,-0.4 -0.5,0.1 -0.6,0.3 -0.7,0.4 z"
   id="path210"
   inkscape:connector-curvature="0"
   style="fill:#312783" />
						<polygon
   class="st4"
   points="189.1,292.9 189.5,293.9 190.1,294 "
   id="polygon212"
   style="fill:#312783" />
						<path
   class="st4"
   d="m 186.9,293.8 0.4,-1.3 -1.4,0.5 c 0.3,0.2 0.9,0.5 1,0.8 z"
   id="path214"
   inkscape:connector-curvature="0"
   style="fill:#312783" />
						<path
   class="st4"
   d="m 389.2,290.2 0,-0.3 c -0.3,-0.3 -0.6,-0.3 -1.1,-0.2 l 1.1,0.5 z"
   id="path216"
   inkscape:connector-curvature="0"
   style="fill:#312783" />
						<polygon
   class="st4"
   points="370.3,294.5 369.3,293.6 370,294.6 "
   id="polygon218"
   style="fill:#312783" />
						<path
   class="st4"
   d="m 353.6,301.1 c 0.7,-0.2 1.4,-0.7 2.1,-0.8 -1.4,0.6 -2.7,-0.6 -2.1,0.8 z"
   id="path220"
   inkscape:connector-curvature="0"
   style="fill:#312783" />
					</g>
				</g>
			</g>
		</g>
	</g>
	<g
   id="g222">
		<path
   class="st5"
   d="m 247.9,289.2 c 40.5,-4.2 94.1,-30.8 146.6,-30.8 10,0 43.7,-2.5 53.4,-4.6 15.3,-3.3 14.8,-8.2 30.5,-8.3 75.8,-0.3 86.7,-17.7 162.5,-18"
   id="path224"
   inkscape:connector-curvature="0"
   style="fill:#ffed00" />
	</g>
	<g
   id="g226">
		<g
   id="g228">
			<g
   id="g230">
				<g
   id="g232">
					<g
   id="g234">
						<path
   class="st6"
   d="m 617.7,245.2 c 0.5,0 0.2,-0.8 0.2,-1 -0.7,0.3 -0.1,1.2 -0.2,1 z"
   id="path236"
   inkscape:connector-curvature="0"
   style="fill:#3aaa35" />
						<polygon
   class="st6"
   points="610.1,248 609,249.1 610,248.4 "
   id="polygon238"
   style="fill:#3aaa35" />
						<path
   class="st6"
   d="m 602.5,249.7 c 1,1.3 2.7,-0.7 4.1,-0.5 l 0.3,0.3 0.4,-1.2 c -1.6,0.5 -3.6,1.6 -4.8,1.4 z"
   id="path240"
   inkscape:connector-curvature="0"
   style="fill:#3aaa35" />
						<path
   class="st6"
   d="m 597.9,247.4 c 0.3,0.5 -0.8,0.6 1,0 -0.1,0 -0.1,-0.1 -0.2,-0.1 -0.2,0.1 -0.4,0.1 -0.8,0.1 z"
   id="path242"
   inkscape:connector-curvature="0"
   style="fill:#3aaa35" />
						<path
   class="st6"
   d="m 598.7,247.3 c 0.8,-0.2 -0.6,-0.3 0,0 l 0,0 z"
   id="path244"
   inkscape:connector-curvature="0"
   style="fill:#3aaa35" />
						<path
   class="st6"
   d="m 595.1,248.3 1,-0.7 c -0.3,-0.3 -1.2,-0.2 -0.9,-0.5 -1.1,0.5 -0.8,0.8 -0.1,1.2 z"
   id="path246"
   inkscape:connector-curvature="0"
   style="fill:#3aaa35" />
						<path
   class="st6"
   d="m 594.3,249.5 0.5,-0.3 c -0.1,-0.1 -0.3,-0.1 -0.5,0.3 z"
   id="path248"
   inkscape:connector-curvature="0"
   style="fill:#3aaa35" />
						<path
   class="st6"
   d="m 595.8,248.6 -1.1,0.7 c 0.2,0.2 0.3,0.6 0.5,-0.3 0.1,0.4 0.2,0 0.6,-0.4 z"
   id="path250"
   inkscape:connector-curvature="0"
   style="fill:#3aaa35" />
						<path
   class="st6"
   d="m 596.5,248.7 c 0.6,0.2 1.4,0.2 0.5,0.9 2,-0.6 1.5,-1.5 -0.5,-0.9 z"
   id="path252"
   inkscape:connector-curvature="0"
   style="fill:#3aaa35" />
						<path
   class="st6"
   d="m 602.3,251.2 0.9,0.3 0.6,-0.6 c -0.3,0.3 -1.6,-0.1 -1.5,0.3 z"
   id="path254"
   inkscape:connector-curvature="0"
   style="fill:#3aaa35" />
						<path
   class="st6"
   d="m 588.4,248.8 c 0,0.3 0.5,0.7 0.7,1.1 l 0.7,-0.5 c -0.4,-0.1 -1.2,-0.1 -1.4,-0.6 z"
   id="path256"
   inkscape:connector-curvature="0"
   style="fill:#3aaa35" />
						<path
   class="st6"
   d="m 589.1,249.9 -1,0.7 c 1,-0.1 1.1,-0.4 1,-0.7 z"
   id="path258"
   inkscape:connector-curvature="0"
   style="fill:#3aaa35" />
						<polygon
   class="st6"
   points="596.1,249.7 594,251.2 594.4,251.1 "
   id="polygon260"
   style="fill:#3aaa35" />
						<polygon
   class="st6"
   points="584.6,248.9 583.6,250.1 584,249.7 "
   id="polygon262"
   style="fill:#3aaa35" />
						<path
   class="st6"
   d="m 581.1,250.4 c 0.4,-0.7 -0.9,-0.8 -0.4,-1.3 -0.8,0.3 -1.3,0.9 -1.9,1.5 0.7,-0.4 1.4,-0.5 2.3,-0.2 z"
   id="path264"
   inkscape:connector-curvature="0"
   style="fill:#3aaa35" />
						<path
   class="st6"
   d="m 578,251.4 c 0.3,-0.2 0.6,-0.5 0.9,-0.9 -0.3,0.2 -0.6,0.5 -0.9,0.9 z"
   id="path266"
   inkscape:connector-curvature="0"
   style="fill:#3aaa35" />
						<path
   class="st6"
   d="m 586.1,250.9 c -0.1,-0.2 -0.4,-0.6 -1.1,-0.7 l 0.6,0.7 c 0.1,0.1 0.3,0 0.5,0 z"
   id="path268"
   inkscape:connector-curvature="0"
   style="fill:#3aaa35" />
						<path
   class="st6"
   d="m 585.6,251 0,0 c -0.5,0.1 -0.9,0.1 -1,0.1 0.1,0 0.5,0 1,-0.1 z"
   id="path270"
   inkscape:connector-curvature="0"
   style="fill:#3aaa35" />
						<path
   class="st6"
   d="m 586.2,250.9 c 0,0 -0.1,0 -0.1,0 0,0.1 0.1,0.1 0.1,0 z"
   id="path272"
   inkscape:connector-curvature="0"
   style="fill:#3aaa35" />
						<path
   class="st6"
   d="m 591.2,250.9 c -0.6,0.6 -1.9,1.4 -0.4,1.8 0.4,-0.6 -0.4,-0.9 0.4,-1.8 z"
   id="path274"
   inkscape:connector-curvature="0"
   style="fill:#3aaa35" />
						<path
   class="st6"
   d="m 586.9,251.8 1.3,0 c -0.1,-0.2 -0.4,-0.5 -0.1,-0.8 l -1.2,0.8 z"
   id="path276"
   inkscape:connector-curvature="0"
   style="fill:#3aaa35" />
						<polygon
   class="st6"
   points="586.9,251.8 586.5,251.8 586.4,252.2 "
   id="polygon278"
   style="fill:#3aaa35" />
						<path
   class="st6"
   d="m 580.2,251.8 c -0.5,0.5 -1,0.6 -1.7,0.8 0.7,0 1.5,0 2.2,-0.2 0.1,-0.3 0.3,-0.8 -0.5,-0.6 z"
   id="path280"
   inkscape:connector-curvature="0"
   style="fill:#3aaa35" />
						<path
   class="st6"
   d="m 582.9,251.5 c 0,0 -0.1,0 -0.1,0.1 0,0 0.1,0 0.1,-0.1 z"
   id="path282"
   inkscape:connector-curvature="0"
   style="fill:#3aaa35" />
						<path
   class="st6"
   d="m 572.2,253.9 0.1,0.1 c 0,-0.1 0,-0.1 0,-0.1 l -0.1,0 z"
   id="path284"
   inkscape:connector-curvature="0"
   style="fill:#3aaa35" />
						<path
   class="st6"
   d="m 580.9,252.5 c 0.6,0.1 0.8,-0.2 1.1,-0.5 -0.4,0.2 -0.8,0.3 -1.2,0.4 -0.1,0.1 -0.1,0.2 0.1,0.1 z"
   id="path286"
   inkscape:connector-curvature="0"
   style="fill:#3aaa35" />
						<path
   class="st6"
   d="m 576.3,252.2 c 0.3,0.1 0.6,0.2 1,0.3 -0.3,-0.3 -1,-0.6 -1,-0.3 z"
   id="path288"
   inkscape:connector-curvature="0"
   style="fill:#3aaa35" />
						<path
   class="st6"
   d="m 582.5,251.3 c 0.1,0 0.1,0 0,0 -0.1,-0.2 -0.1,-0.1 0,0 z"
   id="path290"
   inkscape:connector-curvature="0"
   style="fill:#3aaa35" />
						<path
   class="st6"
   d="m 582.5,251.3 c -0.2,0.2 -0.4,0.4 -0.6,0.7 0.3,-0.1 0.6,-0.3 0.8,-0.5 0,0 -0.1,-0.1 -0.2,-0.2 z"
   id="path292"
   inkscape:connector-curvature="0"
   style="fill:#3aaa35" />
						<path
   class="st6"
   d="m 571.4,259.7 c -0.1,-0.8 1.1,-1.8 2.5,-1.2 1,-0.8 -0.3,-3.2 -1.6,-4.4 0,0.3 0.1,0.7 -1,1.4 0.5,0.3 2.9,0.4 2,1.3 -1.5,0.7 -1.4,0 -2.2,-0.2 0.9,0.8 -1.7,1.8 -1.1,3.2 l 1.3,-0.8 c 0.1,0.1 -0.4,0.5 0.1,0.7 z"
   id="path294"
   inkscape:connector-curvature="0"
   style="fill:#3aaa35" />
						<path
   class="st6"
   d="m 574.6,253.6 0.5,-0.2 c -0.6,0 -1.1,-0.2 -1.9,-0.7 -0.7,0.6 -0.9,0.9 -0.9,1.1 l 2.5,-0.4 -0.2,0.2 z"
   id="path296"
   inkscape:connector-curvature="0"
   style="fill:#3aaa35" />
						<path
   class="st6"
   d="m 577.3,253 c -0.2,0.9 -1.3,1.5 -0.4,2.3 1.4,-0.4 0.9,-0.9 1.7,-1.5 -2.3,0.7 0.5,-0.6 -1.3,-0.8 0.5,-0.1 0.9,-0.3 1.3,-0.4 -0.4,0 -0.9,-0.1 -1.3,-0.1 0,0 0,0 0.1,0 l 0,0 0,0 c 0.1,0.1 0.2,0.1 0,0.1 0,0 0,0 0,0 0,0.1 -0.1,0.2 -0.1,0.4 -0.7,0 -0.2,-0.2 0,-0.3 0,0 0,-0.1 0,-0.1 0,0 0,0 0,0 l -2.3,0.9 c 0.6,-0.1 1.2,-0.2 2.3,-0.5 z"
   id="path298"
   inkscape:connector-curvature="0"
   style="fill:#3aaa35" />
						<path
   class="st6"
   d="m 589.9,254.8 c -0.1,-0.1 -0.1,-0.1 -0.1,-0.2 -0.1,0.2 -0.1,0.3 0.1,0.2 z"
   id="path300"
   inkscape:connector-curvature="0"
   style="fill:#3aaa35" />
						<path
   class="st6"
   d="m 588.9,254.5 c 0.1,-0.2 0.2,-0.5 0.8,-0.5 0.5,0.2 0.1,0.4 0.2,0.7 0.3,-0.3 1.1,-0.8 -0.1,-1 l -0.1,0.1 c -1,-0.1 -2.4,-0.9 -2.3,-1.1 0.3,0.7 0.7,1.2 1.5,1.8 z"
   id="path302"
   inkscape:connector-curvature="0"
   style="fill:#3aaa35" />
						<path
   class="st6"
   d="m 583.1,253.9 -1.9,0.8 1.1,0.5 -0.1,-0.4 c 1.2,0 0.8,-0.5 0.9,-0.9 z"
   id="path304"
   inkscape:connector-curvature="0"
   style="fill:#3aaa35" />
						<polygon
   class="st6"
   points="571.9,252.6 571.1,254.1 571.9,253.5 "
   id="polygon306"
   style="fill:#3aaa35" />
						<polygon
   class="st6"
   points="569.3,253.4 568.7,254 569.3,254.2 "
   id="polygon308"
   style="fill:#3aaa35" />
						<path
   class="st6"
   d="m 428.7,293.6 -0.5,0.3 c 0.3,-0.1 0.4,-0.2 0.5,-0.3 z"
   id="path310"
   inkscape:connector-curvature="0"
   style="fill:#3aaa35" />
						<path
   class="st6"
   d="m 432.9,292.7 0,-0.4 c -0.1,0.2 -0.2,0.4 0,0.4 z"
   id="path312"
   inkscape:connector-curvature="0"
   style="fill:#3aaa35" />
						<path
   class="st6"
   d="m 507.3,267.1 c -1,-0.5 -2.1,-1.5 -1.8,-0.6 l 0.4,0.8 c 0.6,-0.3 1,-0.3 1.4,-0.2 z"
   id="path314"
   inkscape:connector-curvature="0"
   style="fill:#3aaa35" />
						<path
   class="st6"
   d="m 465.8,280.8 c 0.1,0.1 0.2,0.1 0.3,0.2 0.1,-0.3 0.3,-0.6 0.4,-0.9 -0.3,0.2 -0.5,0.4 -0.7,0.7 z"
   id="path316"
   inkscape:connector-curvature="0"
   style="fill:#3aaa35" />
						<path
   class="st6"
   d="m 465.9,284.4 -1.2,-0.3 c 0.2,0.1 0.6,0.3 1.2,0.3 z"
   id="path318"
   inkscape:connector-curvature="0"
   style="fill:#3aaa35" />
						<path
   class="st6"
   d="m 406.1,299.2 -0.5,1 c 1.1,-0.2 0.5,-0.6 0.5,-1 z"
   id="path320"
   inkscape:connector-curvature="0"
   style="fill:#3aaa35" />
						<path
   class="st6"
   d="m 543.5,260.2 c -0.1,-0.1 -0.2,-0.2 -0.3,-0.3 -0.1,-0.1 -0.1,-0.1 -0.2,-0.1 -0.1,0 0,-0.1 -0.2,-0.1 l 0.1,0.1 0,0.1 0.1,0.2 c 0.1,0.1 0.1,0.2 0.2,0.3 0.2,0.2 0.4,0.2 0.3,-0.2 z"
   id="path322"
   inkscape:connector-curvature="0"
   style="fill:#3aaa35" />
						<path
   class="st6"
   d="m 428.4,284.2 c -0.3,0.2 -0.4,0.4 -0.4,0.6 0.3,-0.2 0.5,-0.4 0.4,-0.6 z"
   id="path324"
   inkscape:connector-curvature="0"
   style="fill:#3aaa35" />
						<path
   class="st6"
   d="m 540.6,259.8 c 0.1,0.1 0.3,0.1 0.4,0.2 0.5,-0.1 1.1,-0.3 1.7,-0.2 -0.6,-0.4 -1.4,-0.6 -2.1,0 z"
   id="path326"
   inkscape:connector-curvature="0"
   style="fill:#3aaa35" />
						<path
   class="st6"
   d="m 324.2,315.8 c -0.1,0 -0.1,0 -0.2,-0.1 0,0.1 0.1,0.1 0.2,0.1 z"
   id="path328"
   inkscape:connector-curvature="0"
   style="fill:#3aaa35" />
						<path
   class="st6"
   d="m 298.4,312.5 c 0.2,-0.1 0.6,-0.2 1,-0.3 -0.2,0 -0.5,0.1 -1,0.3 z"
   id="path330"
   inkscape:connector-curvature="0"
   style="fill:#3aaa35" />
						<path
   class="st6"
   d="m 559.1,256 c 0.5,-0.2 0,-0.1 0,0 l 0,0 z"
   id="path332"
   inkscape:connector-curvature="0"
   style="fill:#3aaa35" />
						<path
   class="st6"
   d="m 562.4,258.8 c -0.1,0.1 -0.2,0.3 -0.1,0.5 0,-0.3 0,-0.4 0.1,-0.5 z"
   id="path334"
   inkscape:connector-curvature="0"
   style="fill:#3aaa35" />
						<path
   class="st6"
   d="m 535.3,266 c -0.1,0 -0.1,0 0,0 0.1,0.1 0.1,0.1 0,0 z"
   id="path336"
   inkscape:connector-curvature="0"
   style="fill:#3aaa35" />
						<path
   class="st6"
   d="m 559.9,256.2 c -0.2,-0.1 -0.5,-0.1 -0.7,-0.1 0.1,0.1 0.4,0.1 0.7,0.1 z"
   id="path338"
   inkscape:connector-curvature="0"
   style="fill:#3aaa35" />
						<path
   class="st6"
   d="m 559.8,255.8 c 0.2,0 0.3,0 0.5,0 0,-0.1 -0.1,-0.2 -0.5,0 z"
   id="path340"
   inkscape:connector-curvature="0"
   style="fill:#3aaa35" />
						<path
   class="st6"
   d="m 558.3,256.2 c 0.3,-0.1 0.6,-0.1 0.9,-0.1 -0.1,0 -0.2,-0.1 -0.2,-0.1 -0.1,0 -0.3,0.1 -0.7,0.2 z"
   id="path342"
   inkscape:connector-curvature="0"
   style="fill:#3aaa35" />
						<path
   class="st6"
   d="m 367.4,303.4 c 0,0 -0.1,0 -0.1,-0.1 -0.5,0.5 -0.3,0.4 0.1,0.1 z"
   id="path344"
   inkscape:connector-curvature="0"
   style="fill:#3aaa35" />
						<path
   class="st6"
   d="m 495.2,279 c 0,0 0,0 0,0 0,0 0,0 0,0 l 0,0 z"
   id="path346"
   inkscape:connector-curvature="0"
   style="fill:#3aaa35" />
						<path
   class="st6"
   d="m 493.4,280.1 c 0.6,-1.2 1.1,-1.2 1.8,-1.1 l -1.1,-2.3 -0.7,3.4 z"
   id="path348"
   inkscape:connector-curvature="0"
   style="fill:#3aaa35" />
						<path
   class="st6"
   d="m 418.8,296 1.5,0.5 c -1.4,1.6 -2.7,1.4 -1.2,2.2 -0.4,-2.7 5.3,-1.4 4.9,-4.1 l 1,0.4 c -0.3,0 -0.3,0.2 -0.5,0.2 2,0.9 0.9,-2.2 3.2,-2.3 0.8,0 1.5,0.3 1,0.7 l 1.6,-1 c 0.5,-0.1 0.5,0.4 0,0.5 l 2.6,-0.8 0,0.1 c 0.3,-0.5 1,-1.3 1.4,-1.7 0.8,0.2 -0.3,0.4 0,0.6 l 1.3,-1 c 0.8,0.6 -0.3,1.5 -1.3,1.6 2,2.3 1.1,-0.9 4.4,-0.1 l -1.3,0.6 c 1.2,1.3 2.2,0.5 4,1.1 -0.5,-0.4 -3.7,-1.7 -2.2,-2.7 0.5,0.1 1.1,0.1 1.8,-0.7 0.2,0.9 1,0.5 2,0.2 l 0.2,1.3 c 1,-0.6 0.8,-1.2 1.4,-1.9 1.3,-0.2 1.8,0.8 2.2,1.5 2.1,-0.3 -1.7,-1.2 0.6,-2 1.8,0.1 2.8,-0.7 4.7,-1.9 1.3,0.2 0,0.8 0.5,1.1 l 0.8,-1.2 c 0.3,0 0.2,0.3 0.2,0.5 0.8,-0.6 -0.2,-1.3 1.1,-1.9 0.1,-1.5 3.3,1.4 4.6,-0.5 0.5,0.3 0,0.8 0.2,1.3 2.1,-1.5 1.8,-1.2 3.5,-3 l 1.8,0.5 c -1.4,-0.7 -0.1,-2.1 1.1,-3.3 -0.5,-0.4 -1,-0.7 -1.3,-0.8 l 2,-1.1 c 0.3,0.2 0.2,0.6 -0.1,1.2 0.1,-0.1 0.2,-0.3 0.3,-0.4 0.9,0.3 0.6,1.1 0.2,1.9 -0.3,-0.2 -0.6,-0.4 -0.9,-0.6 -0.4,0.9 -0.7,1.8 -0.5,2.5 0.1,-0.2 0.4,-0.4 0.6,-0.5 -0.1,0.2 -0.1,0.4 -0.1,0.5 0.1,0.1 0.3,-0.2 0.6,-0.6 l 0.8,1.3 0,-0.6 3,0.3 c 1.7,-1.8 3.1,-4.2 6.2,-5.3 -0.6,1.2 0.1,1.7 0.3,2.9 -1.1,-1.1 -2.4,1 -4.1,1 0.9,0 0.8,0.6 0.6,0.8 l 2.7,-1.7 c 0.1,1 0.8,0.6 1.6,0.9 -0.9,-1.9 2,-1.7 3.1,-2.5 0.2,0.7 0,1.4 -1.5,1.5 1.9,1.2 1.7,-2.7 3.6,-1.7 -0.4,0.1 -0.6,0 -0.7,0.4 0.7,-0.7 2.9,-0.6 2.5,0.1 l -0.4,0.1 c 0.6,0 1.4,-0.1 2.2,-0.3 0.8,-0.2 1.6,-0.4 2.4,-0.7 1.5,-0.6 2.7,-1.4 2.7,-2.2 0.1,0.2 0.1,2.1 0,2.5 l 3.2,-6.6 c -0.1,1.5 2,4.6 0.2,5.9 0.6,0.1 1.4,0.2 2.5,-0.6 -0.4,-0.1 -1.4,-1.9 -0.9,-2.1 1.8,1.3 1.2,0.6 3.2,1.6 -0.6,-0.2 -0.4,-2.6 0.5,-2.7 -0.1,0.4 0.5,2.2 0.2,2.5 l 1.8,-2.7 c -0.5,0.5 0.3,1.9 0.9,2.4 -0.3,-0.4 2,-0.4 2.5,-0.8 l -1.1,-0.3 c 2.6,-0.2 1.9,-3.7 4.5,-4.1 -0.2,0.5 -0.2,3 1.2,3 0.4,-1.3 1.5,-6 3.6,-7.4 l 0.6,0.5 1.6,-1.1 c -0.7,1.9 -3,6.2 -4.4,8 1.1,0.3 0.4,0.7 1.9,0.3 0.6,0.5 -0.6,1.1 -1,1.2 l 3.4,-0.4 c -0.4,-1.3 2.3,-1.9 1.9,-3 l -3.4,2.2 c -0.4,-1.3 1.3,-4.2 3.8,-4.5 0.7,0.4 0,2.4 0.2,2.9 0.2,-0.5 2.1,-1.4 2.4,-1.1 l -0.9,0.9 c 1.4,0.2 1.8,-2.2 3.7,-1.3 0.6,0 2,1.3 1.9,0.5 -1.2,-1.3 -2.4,-5.9 -2,-7.2 0.2,0.1 3.2,0.8 4,1.4 1.2,1 -0.8,3.1 0.2,3.9 0,-0.4 0.4,-0.9 0.5,-1.1 0.6,0.2 0,1.2 1.2,0.7 -0.1,-1.4 2.6,-0.5 0.3,-1.3 1.1,-0.7 1.4,0 2.8,-0.4 -0.6,-0.8 0.7,-3.2 1.8,-3.9 0,0.4 0.4,0.7 0.6,0.9 1.4,-0.2 2.6,-0.3 3.6,-0.3 0.8,0.1 1.6,0.3 2.7,0.3 0.2,0.3 1.4,0.7 0.9,1.3 0.2,-0.1 0.3,-0.3 0.6,-0.4 0.3,-0.1 0.6,-0.3 1,-0.3 0,0 0,0 0,0 0.8,0.4 0.5,0.5 0,0.7 -0.6,0.1 -1.4,0.1 -0.6,0.9 0,-0.2 0.3,-0.4 0.7,-0.6 0.2,-0.1 0.4,-0.3 0.7,-0.4 0.1,-0.1 0.2,-0.1 0.4,-0.2 l 0.3,-0.2 c 0.4,-0.2 0.8,-0.5 1.1,-0.7 -0.2,-0.4 -0.6,-0.5 -1,-0.4 -0.2,0.1 -0.4,0.2 -0.7,0.3 -0.3,0.1 -0.6,0.3 -0.8,0.5 -0.4,0.2 -0.9,0.3 -1.2,0.5 0,-0.8 0.4,-1.5 1,-2.2 0.3,-0.5 0.6,-1 1.1,-1.4 0.5,-0.5 1,-0.9 1.7,-1.2 1.9,-0.9 1.1,0.9 1.4,0.6 3.7,-0.5 2.5,-3.6 5.8,-3.1 1.4,0.8 0.5,2.1 1,2.8 -1.5,0.8 -2.6,-0.1 -3.6,0.2 l 1.4,0.2 c -0.4,0.5 -1.4,1 -2.1,0.8 1.2,0.7 6.2,-1.2 9.2,-1 0.4,-0.5 1.2,-1 0.7,-1.3 l -0.9,0.3 c -1,-0.7 1.4,-1.5 0.2,-1.7 1.1,-0.9 2.2,-2.1 4,-2 l 0.6,1.1 c -0.1,-0.3 -1.3,-0.5 -1.7,0 0.6,-0.7 2.9,1.1 3.4,-0.7 l -1.4,-0.6 c 1.1,-0.9 2.3,-2.5 3.9,-2.4 -0.9,-1 -0.3,0.2 -1.7,-0.9 1.3,1.5 -3.9,0.8 -2,2.2 -1.4,-1.4 -2,-0.3 -3.8,-1.3 0.1,0.4 0.7,0.6 -0.6,0.7 0,0.1 -0.1,0.3 -0.2,0.4 0,0 -0.1,0 -0.1,0 0,0 0.1,0 0.1,0 0,0.1 0,0.1 0,0 0.3,0.1 0.6,0.3 0.8,0.5 -0.4,1 -2.4,1.5 -3,2.1 -0.8,0 0.2,-0.5 -0.3,-0.9 l -0.9,0.9 c -0.3,-0.9 -2.3,-1 -0.7,-1.9 l -1.6,0.3 c -1,-0.3 -2.4,-0.2 -3.1,0.4 -0.8,0 -1.7,1.4 -1.2,0.6 l -2.4,1.1 -0.1,-0.2 c -0.8,0.1 -1.6,0.5 -2.4,0.8 -0.7,0.3 -1.9,0.8 -2.1,0.8 -0.2,0 -1.4,-0.2 -2.3,-0.7 -0.7,0.2 -1.1,0.4 -2.8,0.3 -0.4,0.1 -0.9,0.2 -1.4,0.2 l -0.4,-0.7 c -1,0.5 -3.3,0 -3.6,0.8 -1.6,-1.8 -5.2,0.7 -7.1,0.8 l 0.1,1 c -1.3,0.2 -2.4,0.8 -3.9,1.5 l 0.3,0.9 c -1.2,1 -3.6,0.2 -5.8,0.7 0.1,-0.4 0.6,-0.4 1.1,-0.3 -3,-1.4 -5.1,2.7 -7.8,1.8 -0.5,0.5 -1,0.4 -1.4,0.3 0.1,0 0.1,0 0.1,-0.1 -0.1,0 -0.2,0 -0.2,0 -0.3,-0.1 -0.6,-0.2 -0.9,-0.3 0.3,0.2 0.6,0.3 0.8,0.3 -0.4,0.1 -1.1,0.4 -1.7,0.8 l -0.5,-0.9 c -0.1,0 -0.1,0 -0.1,0.1 -0.7,-0.2 -0.4,0.6 0.1,1.2 -0.3,0.2 -0.6,0.5 -0.8,0.8 -0.8,-1.4 -1.6,0.9 -2.7,-0.6 -0.3,0.9 -3.2,1.4 -3.3,3.1 -0.1,-0.2 -0.3,-0.3 0.1,-0.4 -0.8,0 -1.6,0 -2.1,0.6 l -0.5,-1.1 -1.3,2 c -1.1,-0.5 -1.6,-0.8 -0.8,-2 -2.1,2 -1.8,1 -3.6,2.8 l 0,-0.8 c -0.7,0.2 -1.7,1.5 -2.2,1 -0.5,-0.3 -1.2,-0.3 -2.1,-0.2 -0.9,0.1 -2,0.3 -3.1,0.4 -2.3,0.3 -5,0.7 -7.2,0.4 1.2,2.2 -2.1,-0.7 -2,1.1 -0.3,-0.5 -1,-0.7 -0.4,-1.3 -2.1,0.9 -3.4,-0.3 -4.6,1.5 -0.3,-0.5 0.3,-0.9 0,-1.2 -0.2,0.1 -0.6,0.6 -0.9,0.3 -0.3,-0.3 0.2,-0.5 0.5,-0.8 -2.2,0.5 -2.1,2.2 -1.9,3.8 -1.2,-0.5 -1.8,-0.3 -2.4,0.9 -0.5,-0.4 -1.2,-0.8 0.1,-1.3 -0.8,0.1 -4.8,0.2 -4.6,1.5 -0.3,-0.3 -1.1,0.1 -1.2,0.3 -1.7,0.3 -1.9,0.2 -3.5,0.7 l 0.5,0.1 c -0.3,1.6 -1.3,0.6 -2.6,1.1 l 0,-0.2 c -3.3,-0.4 -1.2,0.8 -4.5,0.2 l 0.4,0.9 c 0.2,2.1 -3,-0.6 -4.5,0.6 l 0.8,0.4 c -0.8,0.9 -3.3,-2.1 -4.3,-2.2 -0.2,-0.1 0.3,-0.4 0.5,-0.6 -2.8,-0.6 -0.1,1.3 -1.9,2 -0.5,-0.6 0.1,-1.8 -1.2,-1.6 -0.8,-0.4 -3.2,3 -5.2,2.1 0.5,0.4 1,0.8 0.2,1.4 -1.3,0.5 -4,-1.1 -4.9,0.8 -0.2,-0.1 -0.3,-0.2 -0.3,-0.3 -0.9,0.6 -3.2,1.4 -3.6,2.4 -1.6,-3 -6,3 -6.6,0 l -3.1,0.8 0,-0.3 c -2,0.2 -2.6,1.1 -3.2,1.9 -0.5,-0.1 -0.2,-0.5 -0.2,-0.6 -3.1,0 -3.3,0.2 -5.5,2.1 l -0.4,-0.9 c -0.6,0.7 -4.5,-0.7 -7.2,0.9 0,-0.1 0,-0.3 0.2,-0.5 -3.1,1.7 -8.3,-1.5 -8.9,2.3 l -2,1.3 c 2.9,-0.2 -0.2,1.6 1.1,2 -1.1,0.4 -3,-0.6 -1.7,-1 l 0.2,0.1 c 0.2,-1.9 -3.6,0 -3.8,-1.3 -5.5,1.2 -11.1,1.2 -16.2,2.3 l 0.9,1.3 -1.8,0.3 c -0.5,-0.2 -0.9,-1 0.4,-1.2 -0.8,-0.7 -2,1.1 -2,1.5 -2.6,0 0.6,-1.9 -0.2,-1.7 l -1,0.3 0.3,0.1 c -0.7,0.8 -0.7,1.4 -2.2,1.7 -1,-0.1 -0.7,-0.8 -1.1,-0.7 0,-0.1 -0.2,-0.1 -0.6,0.1 l -2.3,0.4 1.2,0.9 c -0.9,0.8 -2.1,0.4 -0.8,1.5 -2,-1.6 -8.5,1.2 -9.6,0.8 -1.2,1.1 -2.6,1.5 -4.3,1.8 0.5,0.1 1,1.3 -0.5,1.5 -0.1,-2.7 -3,-0.5 -4.6,-2.1 1.4,1 -4.1,1.3 -2,2.7 -1.3,0.1 -0.3,-1 -1.4,-1.4 -2.7,1.7 -6.6,0.9 -10.1,2 0,0.4 0.7,0.7 0.1,1.4 l -2.3,-1.3 c -0.7,0.3 -0.2,2.1 -1.8,1.2 0.3,0.2 0.6,0.6 0.2,0.8 -7.4,0 -14.1,4.7 -21.9,3 1.1,0.5 0.5,0.7 -0.3,0.8 0.5,0.1 0.2,0.9 0.4,1.3 l -3.3,-0.7 c -0.3,1.4 -3.2,0.7 -3.3,2 l 0.9,-0.4 c -1,1.7 2.4,2.9 2.6,4.8 1.1,-1.9 4.3,1.7 6.1,-1.2 0.6,0.3 -0.3,0.7 0.1,1.1 0.4,-0.9 1.1,-1.2 2.5,-1.2 l -0.1,0.2 c 3.7,-1 5.5,-0.6 9.7,-1 l -0.5,-0.9 c 0.9,-0.1 1.2,0.2 1.7,0.3 0.7,-1.6 -2.5,0.5 -1.9,-1.3 1.6,1.6 6.3,-1.4 7.6,0.5 1.4,-0.3 -0.7,-1 0.7,-1.3 l 0.5,0.5 0.2,-0.8 c 0.9,-0.1 1.6,0.5 1.7,1 -0.2,0 -0.6,0.3 -0.8,0.4 1.3,0.4 3.2,-1 3.7,-0.9 l -1.4,0 c 3.6,-1.4 8.4,-1.7 11.7,-3.8 l -0.4,-0.4 c 2.6,-1.5 2.3,0 5.3,-1.1 l -0.1,0.1 c 0.5,-0.6 1.3,-1 2.1,-1.1 -0.6,0.7 1.7,0.7 0.8,1.5 2.8,-1.6 1.3,-1 2.9,-3.1 l 0.6,0.6 c 0.5,-0.8 0.5,-1.2 2,-1.7 -1.1,0.9 1.2,0.9 0,2 3.5,0.8 4.4,-2.7 6.3,-0.7 1,-2.3 -3,-0.5 -2.3,-1.1 -0.8,-0.5 0.9,-1.8 1.9,-1.8 1,-0.2 2.3,2.2 4.9,1.6 -0.3,0 -0.2,0.2 -0.5,0.2 1.1,0.3 1.7,-1.1 3.1,-0.5 0.4,-1.4 1.5,-0.3 1.4,-1.9 l -2.3,0.9 c 1.2,-0.7 2.1,-2.8 4.5,-2.4 -0.1,0.3 -0.7,0.9 -1.1,1.2 0.7,0.3 1.2,-0.6 1.9,-0.2 0.1,1.6 -2.8,0.9 -3.9,2.4 0.8,0.5 2.4,-1.7 2.1,0.1 0.6,-2.4 2.6,-0.3 4,-2.3 l 0.1,1 c 0.2,-0.2 0.7,-0.8 1.2,-0.8 l -0.7,1.4 c 1.2,-1.3 2.9,0.3 4.1,-0.5 -2.8,0.6 -0.9,-1 -2.2,-1.4 3.2,-2 2.5,2 6.3,0.8 -0.5,0.2 -2.1,-0.2 -1.3,-0.8 0.8,0 1.8,0.2 2.4,0.6 2.5,-0.7 -0.6,-0.9 0.4,-1.7 1.1,1 1.2,-0.7 2.2,-1.3 l 0.2,0.9 c 3,0 0.4,-2.1 3.2,-1.9 l -0.9,1.5 1.3,-0.6 -0.1,1.1 c 1.3,-1.1 1.8,-1 3.4,-0.9 -0.4,-0.6 -0.1,-1.8 1.2,-2 1,0.4 -0.4,1 1.5,0.5 -0.3,0.7 -0.7,1.5 -1.6,0.7 0,0.3 -0.3,0.7 -0.4,1 1.1,0.5 2.5,-0.2 3.1,-0.4 -0.3,0 -0.6,0 -0.8,-0.1 l 2.5,-1.8 c 0.5,0.3 0.2,0.6 -0.1,1 0.5,-0.2 0.8,-0.7 1.6,-0.9 -0.1,0.8 0.1,1.6 -1,2.2 l 2.5,-1.3 c 0.2,0.3 1.5,0.7 1.2,1 1.5,0.2 3.3,-2.1 5.3,-1.9 0.1,-0.2 0.2,-0.3 0.6,-0.5 1.8,-0.2 3.6,0.5 5.5,-1 l 1.5,1.1 c 1.6,-0.6 -2,-1.4 0.7,-2.5 1.9,-0.8 1,1 1.7,1.3 0.8,-0.9 2.2,-2.7 4.2,-1.9 -0.6,1 -1.1,0.9 -1.7,1.2 z m 20.1,-5.1 c -0.3,0.3 -1,1.1 -1.4,0.6 0.2,-1.2 0.7,-0.8 1.4,-0.6 z m 30.2,-8.9 c -0.2,0.4 -0.7,0.3 -1.3,0 0.4,-0.1 0.8,-0.1 1.3,0 z m 84.2,-23.9 c 0,0 0,0 0,0 -0.9,-0.1 -0.6,-0.1 0,0 z m 1.9,0 c 0.2,-0.2 0.1,-0.3 0,-0.4 -0.1,0.3 -0.5,0.4 -1,0.4 0.3,0.2 0.6,0.3 1,0 z m -194.9,40.2 0.4,0.2 c -0.8,0.4 -0.6,0.1 -0.4,-0.2 z"
   id="path350"
   inkscape:connector-curvature="0"
   style="fill:#3aaa35" />
						<path
   class="st6"
   d="m 465.9,284 c -0.1,-0.1 -0.2,-0.3 -0.3,-0.5 -0.1,0.2 -0.1,0.4 0.3,0.5 z"
   id="path352"
   inkscape:connector-curvature="0"
   style="fill:#3aaa35" />
						<path
   class="st6"
   d="m 406.2,299 c 0,0 0,0 0,0 -0.1,0.1 -0.1,0.1 -0.1,0.2 l 0.1,-0.2 z"
   id="path354"
   inkscape:connector-curvature="0"
   style="fill:#3aaa35" />
						<path
   class="st6"
   d="m 528.8,271.3 c -0.4,-0.1 -0.6,-0.2 -0.8,-0.3 0.1,0.2 0.3,0.4 0.8,0.3 z"
   id="path356"
   inkscape:connector-curvature="0"
   style="fill:#3aaa35" />
						<path
   class="st6"
   d="m 564.5,254.4 -1.1,0.5 c 0.6,-0.2 0.8,0 1.1,0.1 0,-0.3 -0.3,-0.5 0,-0.6 z"
   id="path358"
   inkscape:connector-curvature="0"
   style="fill:#3aaa35" />
						<path
   class="st6"
   d="m 575.9,258.1 c 0.1,-0.2 0.4,-0.1 0.5,-0.2 l -0.1,-0.4 c -0.8,0.1 -1.2,0.5 -0.4,0.6 z"
   id="path360"
   inkscape:connector-curvature="0"
   style="fill:#3aaa35" />
						<path
   class="st6"
   d="m 566.3,257.3 c 0.3,0.8 0.9,0.3 1.7,0 0,0 -0.1,0 -0.1,0 0,-1.1 -0.8,-0.6 -1.6,0 z"
   id="path362"
   inkscape:connector-curvature="0"
   style="fill:#3aaa35" />
						<path
   class="st6"
   d="m 568.2,257.2 c 0.2,-0.1 0.5,-0.2 0.7,-0.2 0,-0.4 -0.3,0 -0.7,0.2 z"
   id="path364"
   inkscape:connector-curvature="0"
   style="fill:#3aaa35" />
						<path
   class="st6"
   d="m 557.4,257 c 0.4,0.1 0,-1.1 0.3,-0.8 0.2,-1.1 -2.3,1.8 -0.3,0.8 z"
   id="path366"
   inkscape:connector-curvature="0"
   style="fill:#3aaa35" />
						<polygon
   class="st6"
   points="567,258.8 566.7,259.7 567.5,259.7 "
   id="polygon368"
   style="fill:#3aaa35" />
						<path
   class="st6"
   d="m 560.9,260.4 1.4,0 c -0.1,-0.2 0.1,-0.3 0.3,-0.4 -0.8,0.1 -1.8,0.1 -1.7,0.4 z"
   id="path370"
   inkscape:connector-curvature="0"
   style="fill:#3aaa35" />
						<path
   class="st6"
   d="m 562.6,260 c 0.4,-0.1 0.8,-0.2 1,-0.4 -0.3,0.1 -0.7,0.2 -1,0.4 z"
   id="path372"
   inkscape:connector-curvature="0"
   style="fill:#3aaa35" />
						<polygon
   class="st6"
   points="565.4,260.3 564.4,260.4 565.8,260.4 "
   id="polygon374"
   style="fill:#3aaa35" />
						<path
   class="st6"
   d="m 546.9,263.4 -1.4,0.6 c -0.1,0.4 0.4,0.5 0.9,0.2 0.3,-0.3 0.8,-0.6 0.5,-0.8 z"
   id="path376"
   inkscape:connector-curvature="0"
   style="fill:#3aaa35" />
						<path
   class="st6"
   d="m 551.8,265.1 c -0.4,-0.1 -0.5,-0.3 -0.8,-0.6 l 0.2,1.2 0.6,-0.6 z"
   id="path378"
   inkscape:connector-curvature="0"
   style="fill:#3aaa35" />
						<path
   class="st6"
   d="m 547.8,266.3 c -0.1,0.4 -1.8,1.4 -0.1,0.9 0.1,-0.3 1.4,-0.9 0.1,-0.9 z"
   id="path380"
   inkscape:connector-curvature="0"
   style="fill:#3aaa35" />
						<polygon
   class="st6"
   points="526.3,268.4 525.8,266.4 525.9,268.5 "
   id="polygon382"
   style="fill:#3aaa35" />
						<path
   class="st6"
   d="m 508.1,277.5 c 1.8,0.1 0.2,-1.3 1.8,-1.1 0.3,-0.6 -1.3,-0.2 -1,-0.7 -0.9,0.8 -1.5,0.6 -0.8,1.8 z"
   id="path384"
   inkscape:connector-curvature="0"
   style="fill:#3aaa35" />
						<path
   class="st6"
   d="m 508.9,275.8 c 0.1,-0.1 0.3,-0.3 0.5,-0.4 -0.3,0.1 -0.5,0.2 -0.5,0.4 z"
   id="path386"
   inkscape:connector-curvature="0"
   style="fill:#3aaa35" />
						<polygon
   class="st6"
   points="293.1,312.1 294,312.6 294.3,312.3 "
   id="polygon388"
   style="fill:#3aaa35" />
						<path
   class="st6"
   d="m 292.5,314.2 -0.5,-1.2 -0.4,1.3 c 0.2,-0.2 0.7,-0.4 0.9,-0.1 z"
   id="path390"
   inkscape:connector-curvature="0"
   style="fill:#3aaa35" />
						<path
   class="st6"
   d="m 442.5,292.8 0,-0.3 c -0.2,-0.3 -0.5,-0.3 -1,-0.2 l 1,0.5 z"
   id="path392"
   inkscape:connector-curvature="0"
   style="fill:#3aaa35" />
						<polygon
   class="st6"
   points="427.9,295.1 427.2,294 427.6,295.1 "
   id="polygon394"
   style="fill:#3aaa35" />
						<path
   class="st6"
   d="m 415.5,299.2 c 0.5,-0.1 1.1,-0.4 1.6,-0.5 -1,0.5 -2,-0.9 -1.6,0.5 z"
   id="path396"
   inkscape:connector-curvature="0"
   style="fill:#3aaa35" />
					</g>
				</g>
			</g>
		</g>
	</g>
	<g
   id="g398">
		<g
   id="g400">
			<path
   d="m 373.7,180.2 c 7.4,-2.2 15,-3.3 22.7,-2.8 5.7,0.4 12.3,3.4 18,2.2 4.9,-1 8.9,-5.2 13,-7.7 6.2,-3.8 12.9,-6.6 20,-8.4 1.8,-0.4 1.3,-2 -0.4,-1.6 -5.5,1.3 -10.7,3.3 -15.8,5.8 -6.8,3.4 -13.8,10.9 -21.8,9.7 -6,-0.8 -11.5,-2.1 -17.6,-1.9 -6.3,0.2 -12.5,1.3 -18.6,3.1 -1.7,0.5 -1.3,2.1 0.5,1.6 l 0,0 z"
   id="path402"
   inkscape:connector-curvature="0" />
		</g>
	</g>
	<text
   transform="translate(603.7374,235.3597)"
   class="st7 st8 st9"
   id="text404"
   style="font-size:72px;font-family:BritannicBold;fill:#d61016">UA</text>


	<rect
   x="187.5"
   y="188.5"
   class="st10"
   width="39"
   height="35.400002"
   id="rect406"
   style="fill:#3c4899" />
	<rect
   x="178.5"
   y="230.7"
   class="st5"
   width="37"
   height="29.799999"
   id="rect408"
   style="fill:#ffed00" />
	<rect
   x="204"
   y="268"
   class="st11"
   width="33"
   height="29.6"
   id="rect410"
   style="fill:#cab6d9" />
	<rect
   x="226.5"
   y="235.39999"
   class="st12"
   width="18.5"
   height="20.1"
   id="rect412"
   style="fill:#0a7b34" />
</g>
<g
   id="Слой_2"
   transform="translate(-44.80975,-15.5338)">
</g>
</svg>